<?xml version="1.0" encoding="utf-8" standalone="no"?>
<!DOCTYPE svg PUBLIC "-//W3C//DTD SVG 1.1//EN"
  "http://www.w3.org/Graphics/SVG/1.1/DTD/svg11.dtd">
<svg xmlns:xlink="http://www.w3.org/1999/xlink" width="290.52pt" height="290.52pt" viewBox="0 0 290.52 290.52" xmlns="http://www.w3.org/2000/svg" version="1.1">
 <metadata>
  <rdf:RDF xmlns:dc="http://purl.org/dc/elements/1.1/" xmlns:cc="http://creativecommons.org/ns#" xmlns:rdf="http://www.w3.org/1999/02/22-rdf-syntax-ns#">
   <cc:Work>
    <dc:type rdf:resource="http://purl.org/dc/dcmitype/StillImage"/>
    <dc:date>2026-05-01T20:12:54.201661</dc:date>
    <dc:format>image/svg+xml</dc:format>
    <dc:creator>
     <cc:Agent>
      <dc:title>Matplotlib v3.10.9, https://matplotlib.org/</dc:title>
     </cc:Agent>
    </dc:creator>
   </cc:Work>
  </rdf:RDF>
 </metadata>
 <defs>
  <style type="text/css">*{stroke-linejoin: round; stroke-linecap: butt}</style>
 </defs>
 <g id="figure_1">
  <g id="patch_1">
   <path d="M -0 290.52 
L 290.52 290.52 
L 290.52 0 
L -0 0 
z
" style="fill: #ffffff"/>
  </g>
  <g id="axes_1">
   <g id="patch_2">
    <path d="M 155.511936 218.206315 
C 182.298136 214.44176 206.91064 203.144801 223.92883 186.803461 
C 240.947019 170.462122 248.981435 150.410601 246.26259 131.065012 
C 243.543745 111.719423 230.29362 94.659248 209.430403 83.641794 
C 188.567185 72.624339 161.794264 68.54913 135.008064 72.313685 
C 108.221864 76.07824 83.60936 87.375199 66.59117 103.716539 
C 49.572981 120.057878 41.538565 140.109399 44.25741 159.454988 
C 46.976255 178.800577 60.22638 195.860752 81.089597 206.878206 
C 101.952815 217.895661 128.725736 221.97087 155.511936 218.206315 
z
" clip-path="url(#pdc7e698dd8)" style="stroke: #000000; stroke-linejoin: miter"/>
   </g>
   <g id="patch_3">
    <path d="M 60.264 136.7604 
C 111.2616 179.2584 179.2584 111.2616 230.256 153.7596 
" clip-path="url(#pdc7e698dd8)" style="fill: none; stroke: #ffffff; stroke-width: 3.5; stroke-linejoin: miter"/>
   </g>
  </g>
 </g>
 <defs>
  <clipPath id="pdc7e698dd8">
   <rect x="3.6" y="3.6" width="283.32" height="283.32"/>
  </clipPath>
 </defs>
</svg>
