<?xml version="1.0" encoding="utf-8" standalone="no"?>
<!DOCTYPE svg PUBLIC "-//W3C//DTD SVG 1.1//EN"
  "http://www.w3.org/Graphics/SVG/1.1/DTD/svg11.dtd">
<svg xmlns:xlink="http://www.w3.org/1999/xlink" width="290.52pt" height="290.52pt" viewBox="0 0 290.52 290.52" xmlns="http://www.w3.org/2000/svg" version="1.1">
 <metadata>
  <rdf:RDF xmlns:dc="http://purl.org/dc/elements/1.1/" xmlns:cc="http://creativecommons.org/ns#" xmlns:rdf="http://www.w3.org/1999/02/22-rdf-syntax-ns#">
   <cc:Work>
    <dc:type rdf:resource="http://purl.org/dc/dcmitype/StillImage"/>
    <dc:date>2026-05-01T20:12:54.242066</dc:date>
    <dc:format>image/svg+xml</dc:format>
    <dc:creator>
     <cc:Agent>
      <dc:title>Matplotlib v3.10.9, https://matplotlib.org/</dc:title>
     </cc:Agent>
    </dc:creator>
   </cc:Work>
  </rdf:RDF>
 </metadata>
 <defs>
  <style type="text/css">*{stroke-linejoin: round; stroke-linecap: butt}</style>
 </defs>
 <g id="figure_1">
  <g id="patch_1">
   <path d="M -0 290.52 
L 290.52 290.52 
L 290.52 0 
L -0 0 
z
" style="fill: #ffffff"/>
  </g>
  <g id="axes_1">
   <g id="patch_2">
    <path d="M 145.26 17.766 
L 145.26 88.596 
M 145.26 88.596 
L 94.2624 131.094 
M 145.26 88.596 
M 145.26 88.596 
L 196.2576 131.094 
" clip-path="url(#pbcb97a8939)" style="fill: none; stroke: #000000; stroke-width: 3.2; stroke-linecap: round"/>
   </g>
   <g id="patch_3">
    <path d="M 145.26 43.2648 
Q 179.2584 26.2656 190.5912 48.9312 
Q 179.2584 60.264 145.26 48.9312 
z
" clip-path="url(#pbcb97a8939)" style="stroke: #000000; stroke-linejoin: miter"/>
   </g>
   <g id="patch_4">
    <path d="M 88.596 241.5888 
C 105.126215 241.5888 120.981621 235.021276 132.670249 223.332649 
C 144.358876 211.644021 150.9264 195.788615 150.9264 179.2584 
C 150.9264 162.728185 144.358876 146.872779 132.670249 135.184151 
C 120.981621 123.495524 105.126215 116.928 88.596 116.928 
C 72.065785 116.928 56.210379 123.495524 44.521751 135.184151 
C 32.833124 146.872779 26.2656 162.728185 26.2656 179.2584 
C 26.2656 195.788615 32.833124 211.644021 44.521751 223.332649 
C 56.210379 235.021276 72.065785 241.5888 88.596 241.5888 
z
" clip-path="url(#pbcb97a8939)" style="stroke: #000000; stroke-linejoin: miter"/>
   </g>
   <g id="patch_5">
    <path d="M 201.924 241.5888 
C 218.454215 241.5888 234.309621 235.021276 245.998249 223.332649 
C 257.686876 211.644021 264.2544 195.788615 264.2544 179.2584 
C 264.2544 162.728185 257.686876 146.872779 245.998249 135.184151 
C 234.309621 123.495524 218.454215 116.928 201.924 116.928 
C 185.393785 116.928 169.538379 123.495524 157.849751 135.184151 
C 146.161124 146.872779 139.5936 162.728185 139.5936 179.2584 
C 139.5936 195.788615 146.161124 211.644021 157.849751 223.332649 
C 169.538379 235.021276 185.393785 241.5888 201.924 241.5888 
z
" clip-path="url(#pbcb97a8939)" style="stroke: #000000; stroke-linejoin: miter"/>
   </g>
   <g id="patch_6">
    <path d="M 65.9304 165.65904 
C 68.334795 165.65904 70.641036 164.703764 72.3412 163.0036 
C 74.041364 161.303436 74.99664 158.997195 74.99664 156.5928 
C 74.99664 154.188405 74.041364 151.882164 72.3412 150.182 
C 70.641036 148.481836 68.334795 147.52656 65.9304 147.52656 
C 63.526005 147.52656 61.219764 148.481836 59.5196 150.182 
C 57.819436 151.882164 56.86416 154.188405 56.86416 156.5928 
C 56.86416 158.997195 57.819436 161.303436 59.5196 163.0036 
C 61.219764 164.703764 63.526005 165.65904 65.9304 165.65904 
z
" clip-path="url(#pbcb97a8939)" style="fill: #ffffff; stroke: #ffffff; stroke-linejoin: miter"/>
   </g>
   <g id="patch_7">
    <path d="M 179.2584 165.65904 
C 181.662795 165.65904 183.969036 164.703764 185.6692 163.0036 
C 187.369364 161.303436 188.32464 158.997195 188.32464 156.5928 
C 188.32464 154.188405 187.369364 151.882164 185.6692 150.182 
C 183.969036 148.481836 181.662795 147.52656 179.2584 147.52656 
C 176.854005 147.52656 174.547764 148.481836 172.8476 150.182 
C 171.147436 151.882164 170.19216 154.188405 170.19216 156.5928 
C 170.19216 158.997195 171.147436 161.303436 172.8476 163.0036 
C 174.547764 164.703764 176.854005 165.65904 179.2584 165.65904 
z
" clip-path="url(#pbcb97a8939)" style="fill: #ffffff; stroke: #ffffff; stroke-linejoin: miter"/>
   </g>
  </g>
 </g>
 <defs>
  <clipPath id="pbcb97a8939">
   <rect x="3.6" y="3.6" width="283.32" height="283.32"/>
  </clipPath>
 </defs>
</svg>
