<?xml version="1.0" encoding="utf-8" standalone="no"?>
<!DOCTYPE svg PUBLIC "-//W3C//DTD SVG 1.1//EN"
  "http://www.w3.org/Graphics/SVG/1.1/DTD/svg11.dtd">
<svg xmlns:xlink="http://www.w3.org/1999/xlink" width="290.52pt" height="290.52pt" viewBox="0 0 290.52 290.52" xmlns="http://www.w3.org/2000/svg" version="1.1">
 <metadata>
  <rdf:RDF xmlns:dc="http://purl.org/dc/elements/1.1/" xmlns:cc="http://creativecommons.org/ns#" xmlns:rdf="http://www.w3.org/1999/02/22-rdf-syntax-ns#">
   <cc:Work>
    <dc:type rdf:resource="http://purl.org/dc/dcmitype/StillImage"/>
    <dc:date>2026-05-01T20:12:54.282811</dc:date>
    <dc:format>image/svg+xml</dc:format>
    <dc:creator>
     <cc:Agent>
      <dc:title>Matplotlib v3.10.9, https://matplotlib.org/</dc:title>
     </cc:Agent>
    </dc:creator>
   </cc:Work>
  </rdf:RDF>
 </metadata>
 <defs>
  <style type="text/css">*{stroke-linejoin: round; stroke-linecap: butt}</style>
 </defs>
 <g id="figure_1">
  <g id="patch_1">
   <path d="M -0 290.52 
L 290.52 290.52 
L 290.52 0 
L -0 0 
z
" style="fill: #ffffff"/>
  </g>
  <g id="axes_1">
   <g id="patch_2">
    <path d="M 48.9312 85.7628 
L 241.5888 85.7628 
Q 247.2552 85.7628 247.2552 80.0964 
L 247.2552 68.7636 
Q 247.2552 63.0972 241.5888 63.0972 
L 48.9312 63.0972 
Q 43.2648 63.0972 43.2648 68.7636 
L 43.2648 80.0964 
Q 43.2648 85.7628 48.9312 85.7628 
z
" clip-path="url(#pd16f345e01)" style="stroke: #000000; stroke-linejoin: miter"/>
   </g>
   <g id="patch_3">
    <path d="M 60.264 85.7628 
L 230.256 85.7628 
L 173.592 235.9224 
L 116.928 235.9224 
z
" clip-path="url(#pd16f345e01)" style="stroke: #000000; stroke-linejoin: miter"/>
   </g>
   <g id="patch_4">
    <path d="M 142.4268 264.2544 
L 148.0932 264.2544 
Q 156.5928 264.2544 156.5928 255.7548 
L 156.5928 244.422 
Q 156.5928 235.9224 148.0932 235.9224 
L 142.4268 235.9224 
Q 133.9272 235.9224 133.9272 244.422 
L 133.9272 255.7548 
Q 133.9272 264.2544 142.4268 264.2544 
z
" clip-path="url(#pd16f345e01)" style="stroke: #000000; stroke-linejoin: miter"/>
   </g>
  </g>
 </g>
 <defs>
  <clipPath id="pd16f345e01">
   <rect x="3.6" y="3.6" width="283.32" height="283.32"/>
  </clipPath>
 </defs>
</svg>
