<?xml version="1.0" encoding="utf-8" standalone="no"?>
<!DOCTYPE svg PUBLIC "-//W3C//DTD SVG 1.1//EN"
  "http://www.w3.org/Graphics/SVG/1.1/DTD/svg11.dtd">
<svg xmlns:xlink="http://www.w3.org/1999/xlink" width="290.52pt" height="290.52pt" viewBox="0 0 290.52 290.52" xmlns="http://www.w3.org/2000/svg" version="1.1">
 <metadata>
  <rdf:RDF xmlns:dc="http://purl.org/dc/elements/1.1/" xmlns:cc="http://creativecommons.org/ns#" xmlns:rdf="http://www.w3.org/1999/02/22-rdf-syntax-ns#">
   <cc:Work>
    <dc:type rdf:resource="http://purl.org/dc/dcmitype/StillImage"/>
    <dc:date>2026-05-01T20:12:54.323412</dc:date>
    <dc:format>image/svg+xml</dc:format>
    <dc:creator>
     <cc:Agent>
      <dc:title>Matplotlib v3.10.9, https://matplotlib.org/</dc:title>
     </cc:Agent>
    </dc:creator>
   </cc:Work>
  </rdf:RDF>
 </metadata>
 <defs>
  <style type="text/css">*{stroke-linejoin: round; stroke-linecap: butt}</style>
 </defs>
 <g id="figure_1">
  <g id="patch_1">
   <path d="M -0 290.52 
L 290.52 290.52 
L 290.52 0 
L -0 0 
z
" style="fill: #ffffff"/>
  </g>
  <g id="axes_1">
   <g id="patch_2">
    <path d="M 145.26 133.9272 
C 150.519614 133.9272 155.564516 128.553771 159.283625 118.990349 
C 163.002733 109.426926 165.0924 96.454322 165.0924 82.9296 
C 165.0924 69.404878 163.002733 56.432274 159.283625 46.868851 
C 155.564516 37.305429 150.519614 31.932 145.26 31.932 
C 140.000386 31.932 134.955484 37.305429 131.236375 46.868851 
C 127.517267 56.432274 125.4276 69.404878 125.4276 82.9296 
C 125.4276 96.454322 127.517267 109.426926 131.236375 118.990349 
C 134.955484 128.553771 140.000386 133.9272 145.26 133.9272 
z
" clip-path="url(#p0be74e2a51)" style="stroke: #000000; stroke-linejoin: miter"/>
   </g>
   <g id="patch_3">
    <path d="M 134.481867 141.757972 
C 136.107177 136.755782 132.555703 130.297314 124.609615 123.804972 
C 116.663528 117.312629 104.97159 111.316483 92.108816 107.137114 
C 79.246041 102.957745 66.262618 100.936381 56.017995 101.518203 
C 45.773372 102.100026 39.103977 105.237532 37.478667 110.239722 
C 35.853357 115.241912 39.404831 121.70038 47.350919 128.192722 
C 55.297006 134.685065 66.988944 140.681212 79.851718 144.86058 
C 92.714493 149.039949 105.697916 151.061313 115.942539 150.479491 
C 126.187162 149.897668 132.856557 146.760162 134.481867 141.757972 
z
" clip-path="url(#p0be74e2a51)" style="stroke: #000000; stroke-linejoin: miter"/>
   </g>
   <g id="patch_4">
    <path d="M 138.598747 154.428428 
C 134.34363 151.336904 127.103797 152.718781 118.473736 158.269715 
C 109.843675 163.820649 100.527993 173.087431 92.578361 184.029161 
C 84.62873 194.97089 78.6942 206.694223 76.081783 216.617232 
C 73.469367 226.54024 74.392356 233.852754 78.647473 236.944278 
C 82.90259 240.035801 90.142424 238.653925 98.772484 233.102991 
C 107.402545 227.552057 116.718227 218.285275 124.667859 207.343545 
C 132.617491 196.401815 138.552021 184.678482 141.164437 174.755474 
C 143.776853 164.832465 142.853864 157.519951 138.598747 154.428428 
z
" clip-path="url(#p0be74e2a51)" style="stroke: #000000; stroke-linejoin: miter"/>
   </g>
   <g id="patch_5">
    <path d="M 151.921253 154.428428 
C 147.666136 157.519951 146.743147 164.832465 149.355563 174.755474 
C 151.967979 184.678482 157.902509 196.401815 165.852141 207.343545 
C 173.801773 218.285275 183.117455 227.552057 191.747516 233.102991 
C 200.377576 238.653925 207.61741 240.035801 211.872527 236.944278 
C 216.127644 233.852754 217.050633 226.54024 214.438217 216.617232 
C 211.8258 206.694223 205.89127 194.97089 197.941639 184.029161 
C 189.992007 173.087431 180.676325 163.820649 172.046264 158.269715 
C 163.416203 152.718781 156.17637 151.336904 151.921253 154.428428 
z
" clip-path="url(#p0be74e2a51)" style="stroke: #000000; stroke-linejoin: miter"/>
   </g>
   <g id="patch_6">
    <path d="M 156.038133 141.757972 
C 157.663443 146.760162 164.332838 149.897668 174.577461 150.479491 
C 184.822084 151.061313 197.805507 149.039949 210.668282 144.86058 
C 223.531056 140.681212 235.222994 134.685065 243.169081 128.192722 
C 251.115169 121.70038 254.666643 115.241912 253.041333 110.239722 
C 251.416023 105.237532 244.746628 102.100026 234.502005 101.518203 
C 224.257382 100.936381 211.273959 102.957745 198.411184 107.137114 
C 185.54841 111.316483 173.856472 117.312629 165.910385 123.804972 
C 157.964297 130.297314 154.412823 136.755782 156.038133 141.757972 
z
" clip-path="url(#p0be74e2a51)" style="stroke: #000000; stroke-linejoin: miter"/>
   </g>
   <g id="patch_7">
    <path d="M 145.26 165.0924 
C 150.519614 165.0924 155.564516 163.002733 159.283625 159.283625 
C 163.002733 155.564516 165.0924 150.519614 165.0924 145.26 
C 165.0924 140.000386 163.002733 134.955484 159.283625 131.236375 
C 155.564516 127.517267 150.519614 125.4276 145.26 125.4276 
C 140.000386 125.4276 134.955484 127.517267 131.236375 131.236375 
C 127.517267 134.955484 125.4276 140.000386 125.4276 145.26 
C 125.4276 150.519614 127.517267 155.564516 131.236375 159.283625 
C 134.955484 163.002733 140.000386 165.0924 145.26 165.0924 
z
" clip-path="url(#p0be74e2a51)" style="stroke: #000000; stroke-linejoin: miter"/>
   </g>
   <g id="patch_8">
    <path d="M 145.26 153.7596 
C 147.51412 153.7596 149.676221 152.864029 151.270125 151.270125 
C 152.864029 149.676221 153.7596 147.51412 153.7596 145.26 
C 153.7596 143.00588 152.864029 140.843779 151.270125 139.249875 
C 149.676221 137.655971 147.51412 136.7604 145.26 136.7604 
C 143.00588 136.7604 140.843779 137.655971 139.249875 139.249875 
C 137.655971 140.843779 136.7604 143.00588 136.7604 145.26 
C 136.7604 147.51412 137.655971 149.676221 139.249875 151.270125 
C 140.843779 152.864029 143.00588 153.7596 145.26 153.7596 
z
" clip-path="url(#p0be74e2a51)" style="fill: #ffffff; stroke: #ffffff; stroke-linejoin: miter"/>
   </g>
  </g>
 </g>
 <defs>
  <clipPath id="p0be74e2a51">
   <rect x="3.6" y="3.6" width="283.32" height="283.32"/>
  </clipPath>
 </defs>
</svg>
