<?xml version="1.0" encoding="utf-8" standalone="no"?>
<!DOCTYPE svg PUBLIC "-//W3C//DTD SVG 1.1//EN"
  "http://www.w3.org/Graphics/SVG/1.1/DTD/svg11.dtd">
<svg xmlns:xlink="http://www.w3.org/1999/xlink" width="290.52pt" height="290.52pt" viewBox="0 0 290.52 290.52" xmlns="http://www.w3.org/2000/svg" version="1.1">
 <metadata>
  <rdf:RDF xmlns:dc="http://purl.org/dc/elements/1.1/" xmlns:cc="http://creativecommons.org/ns#" xmlns:rdf="http://www.w3.org/1999/02/22-rdf-syntax-ns#">
   <cc:Work>
    <dc:type rdf:resource="http://purl.org/dc/dcmitype/StillImage"/>
    <dc:date>2026-05-01T20:12:54.421137</dc:date>
    <dc:format>image/svg+xml</dc:format>
    <dc:creator>
     <cc:Agent>
      <dc:title>Matplotlib v3.10.9, https://matplotlib.org/</dc:title>
     </cc:Agent>
    </dc:creator>
   </cc:Work>
  </rdf:RDF>
 </metadata>
 <defs>
  <style type="text/css">*{stroke-linejoin: round; stroke-linecap: butt}</style>
 </defs>
 <g id="figure_1">
  <g id="patch_1">
   <path d="M -0 290.52 
L 290.52 290.52 
L 290.52 0 
L -0 0 
z
" style="fill: #ffffff"/>
  </g>
  <g id="axes_1">
   <g id="patch_2">
    <path d="M 88.596 94.2624 
L 201.924 94.2624 
L 190.5912 196.2576 
L 99.9288 196.2576 
z
" clip-path="url(#peb613a3d30)" style="stroke: #000000; stroke-linejoin: miter"/>
   </g>
   <g id="patch_3">
    <path d="M 213.51142 175.951731 
C 217.992981 176.741951 222.593712 176.541079 226.989347 175.363272 
C 231.384983 174.185465 235.469769 172.05906 238.955804 169.133928 
C 242.44184 166.208797 245.245256 162.555314 247.168463 158.430983 
C 249.091671 154.306651 250.0884 149.810697 250.0884 145.26 
C 250.0884 140.709303 249.091671 136.213349 247.168463 132.089017 
C 245.245256 127.964686 242.44184 124.311203 238.955804 121.386072 
C 235.469769 118.46094 231.384983 116.334535 226.989347 115.156728 
C 222.593712 113.978921 217.992981 113.778049 213.51142 114.568269 
L 216.21731 129.914135 
C 218.458091 129.519025 220.758456 129.619461 222.956274 130.208364 
C 225.154091 130.797268 227.196484 131.86047 228.939502 133.323036 
C 230.68252 134.785602 232.084228 136.612343 233.045832 138.674509 
C 234.007435 140.736675 234.5058 142.984652 234.5058 145.26 
C 234.5058 147.535348 234.007435 149.783325 233.045832 151.845491 
C 232.084228 153.907657 230.68252 155.734398 228.939502 157.196964 
C 227.196484 158.65953 225.154091 159.722732 222.956274 160.311636 
C 220.758456 160.900539 218.458091 161.000975 216.21731 160.605865 
z
" clip-path="url(#peb613a3d30)" style="stroke: #000000; stroke-linejoin: miter"/>
   </g>
   <g id="patch_4">
    <path d="M 57.4308 224.5896 
L 233.0892 224.5896 
Q 241.5888 224.5896 241.5888 216.09 
L 241.5888 213.2568 
Q 241.5888 204.7572 233.0892 204.7572 
L 57.4308 204.7572 
Q 48.9312 204.7572 48.9312 213.2568 
L 48.9312 216.09 
Q 48.9312 224.5896 57.4308 224.5896 
z
" clip-path="url(#peb613a3d30)" style="stroke: #000000; stroke-linejoin: miter"/>
   </g>
   <g id="patch_5">
    <path d="M 116.928 71.5968 
C 105.5952 48.9312 128.2608 37.5984 116.928 17.766 
" clip-path="url(#peb613a3d30)" style="fill: none; stroke: #000000; stroke-width: 2.4; stroke-linejoin: miter; stroke-linecap: round"/>
   </g>
   <g id="patch_6">
    <path d="M 145.26 71.5968 
C 136.7604 48.9312 153.7596 37.5984 145.26 17.766 
" clip-path="url(#peb613a3d30)" style="fill: none; stroke: #000000; stroke-width: 2.4; stroke-linejoin: miter; stroke-linecap: round"/>
   </g>
   <g id="patch_7">
    <path d="M 173.592 71.5968 
C 167.9256 48.9312 179.2584 37.5984 173.592 17.766 
" clip-path="url(#peb613a3d30)" style="fill: none; stroke: #000000; stroke-width: 2.4; stroke-linejoin: miter; stroke-linecap: round"/>
   </g>
  </g>
 </g>
 <defs>
  <clipPath id="peb613a3d30">
   <rect x="3.6" y="3.6" width="283.32" height="283.32"/>
  </clipPath>
 </defs>
</svg>
