<?xml version="1.0" encoding="utf-8" standalone="no"?>
<!DOCTYPE svg PUBLIC "-//W3C//DTD SVG 1.1//EN"
  "http://www.w3.org/Graphics/SVG/1.1/DTD/svg11.dtd">
<svg xmlns:xlink="http://www.w3.org/1999/xlink" width="290.52pt" height="290.52pt" viewBox="0 0 290.52 290.52" xmlns="http://www.w3.org/2000/svg" version="1.1">
 <metadata>
  <rdf:RDF xmlns:dc="http://purl.org/dc/elements/1.1/" xmlns:cc="http://creativecommons.org/ns#" xmlns:rdf="http://www.w3.org/1999/02/22-rdf-syntax-ns#">
   <cc:Work>
    <dc:type rdf:resource="http://purl.org/dc/dcmitype/StillImage"/>
    <dc:date>2026-05-01T20:12:54.461862</dc:date>
    <dc:format>image/svg+xml</dc:format>
    <dc:creator>
     <cc:Agent>
      <dc:title>Matplotlib v3.10.9, https://matplotlib.org/</dc:title>
     </cc:Agent>
    </dc:creator>
   </cc:Work>
  </rdf:RDF>
 </metadata>
 <defs>
  <style type="text/css">*{stroke-linejoin: round; stroke-linecap: butt}</style>
 </defs>
 <g id="figure_1">
  <g id="patch_1">
   <path d="M -0 290.52 
L 290.52 290.52 
L 290.52 0 
L -0 0 
z
" style="fill: #ffffff"/>
  </g>
  <g id="axes_1">
   <g id="patch_2">
    <path d="M 94.2624 235.9224 
L 190.5912 235.9224 
Q 201.924 235.9224 201.924 224.5896 
L 201.924 105.5952 
Q 201.924 94.2624 190.5912 94.2624 
L 94.2624 94.2624 
Q 82.9296 94.2624 82.9296 105.5952 
L 82.9296 224.5896 
Q 82.9296 235.9224 94.2624 235.9224 
z
" clip-path="url(#p0a90ad3070)" style="stroke: #000000; stroke-linejoin: miter"/>
   </g>
   <g id="patch_3">
    <path d="M 77.2632 247.2552 
L 207.5904 247.2552 
Q 213.2568 247.2552 213.2568 241.5888 
L 213.2568 233.0892 
Q 213.2568 227.4228 207.5904 227.4228 
L 77.2632 227.4228 
Q 71.5968 227.4228 71.5968 233.0892 
L 71.5968 241.5888 
Q 71.5968 247.2552 77.2632 247.2552 
z
" clip-path="url(#p0a90ad3070)" style="stroke: #000000; stroke-linejoin: miter"/>
   </g>
   <g id="patch_4">
    <path d="M 111.2616 94.2624 
L 173.592 94.2624 
Q 179.2584 94.2624 179.2584 88.596 
L 179.2584 82.9296 
Q 179.2584 77.2632 173.592 77.2632 
L 111.2616 77.2632 
Q 105.5952 77.2632 105.5952 82.9296 
L 105.5952 88.596 
Q 105.5952 94.2624 111.2616 94.2624 
z
" clip-path="url(#p0a90ad3070)" style="stroke: #000000; stroke-linejoin: miter"/>
   </g>
   <g id="patch_5">
    <path d="M 142.4268 80.0964 
C 144.68092 80.0964 146.843021 79.200829 148.436925 77.606925 
C 150.030829 76.013021 150.9264 73.85092 150.9264 71.5968 
C 150.9264 69.34268 150.030829 67.180579 148.436925 65.586675 
C 146.843021 63.992771 144.68092 63.0972 142.4268 63.0972 
C 140.17268 63.0972 138.010579 63.992771 136.416675 65.586675 
C 134.822771 67.180579 133.9272 69.34268 133.9272 71.5968 
C 133.9272 73.85092 134.822771 76.013021 136.416675 77.606925 
C 138.010579 79.200829 140.17268 80.0964 142.4268 80.0964 
z
" clip-path="url(#p0a90ad3070)" style="stroke: #000000; stroke-linejoin: miter"/>
   </g>
   <g id="patch_6">
    <path d="M 82.9296 116.928 
C 31.932 116.928 26.2656 65.9304 37.5984 37.5984 
M 37.5984 37.5984 
L 48.9312 37.5984 
" clip-path="url(#p0a90ad3070)" style="fill: none; stroke: #000000; stroke-width: 6.5; stroke-linecap: round"/>
   </g>
   <g id="patch_7">
    <path d="M 227.799685 196.117445 
C 236.97448 195.314754 245.522626 191.099275 251.744704 184.309068 
C 257.966782 177.518862 261.4212 168.63584 261.4212 159.426 
C 261.4212 150.21616 257.966782 141.333138 251.744704 134.542932 
C 245.522626 127.752725 236.97448 123.537246 227.799685 122.734555 
L 226.565037 136.846649 
C 232.211064 137.340613 237.471462 139.934754 241.300433 144.113343 
C 245.129404 148.291931 247.2552 153.758406 247.2552 159.426 
C 247.2552 165.093594 245.129404 170.560069 241.300433 174.738657 
C 237.471462 178.917246 232.211064 181.511387 226.565037 182.005351 
z
" clip-path="url(#p0a90ad3070)" style="stroke: #000000; stroke-linejoin: miter"/>
   </g>
  </g>
 </g>
 <defs>
  <clipPath id="p0a90ad3070">
   <rect x="3.6" y="3.6" width="283.32" height="283.32"/>
  </clipPath>
 </defs>
</svg>
