<?xml version="1.0" encoding="utf-8" standalone="no"?>
<!DOCTYPE svg PUBLIC "-//W3C//DTD SVG 1.1//EN"
  "http://www.w3.org/Graphics/SVG/1.1/DTD/svg11.dtd">
<svg xmlns:xlink="http://www.w3.org/1999/xlink" width="842.4pt" height="597.6pt" viewBox="0 0 842.4 597.6" xmlns="http://www.w3.org/2000/svg" version="1.1">
 <metadata>
  <rdf:RDF xmlns:dc="http://purl.org/dc/elements/1.1/" xmlns:cc="http://creativecommons.org/ns#" xmlns:rdf="http://www.w3.org/1999/02/22-rdf-syntax-ns#">
   <cc:Work>
    <dc:type rdf:resource="http://purl.org/dc/dcmitype/StillImage"/>
    <dc:date>2026-05-01T20:12:54.577968</dc:date>
    <dc:format>image/svg+xml</dc:format>
    <dc:creator>
     <cc:Agent>
      <dc:title>Matplotlib v3.10.9, https://matplotlib.org/</dc:title>
     </cc:Agent>
    </dc:creator>
   </cc:Work>
  </rdf:RDF>
 </metadata>
 <defs>
  <style type="text/css">*{stroke-linejoin: round; stroke-linecap: butt}</style>
 </defs>
 <g id="figure_1">
  <g id="patch_1">
   <path d="M 0 597.6 
L 842.4 597.6 
L 842.4 0 
L 0 0 
z
" style="fill: #fafaf7"/>
  </g>
  <g id="axes_1">
   <g id="patch_2">
    <path d="M 27.648 313.994407 
L 216.324 313.994407 
L 216.324 125.318407 
L 27.648 125.318407 
z
" style="fill: #ffffff"/>
   </g>
   <g id="patch_3">
    <path d="M 65.3832 153.619807 
L 178.5888 153.619807 
L 121.986 219.656407 
z
" clip-path="url(#pc33f237b25)" style="stroke: #000000; stroke-linejoin: miter"/>
   </g>
   <g id="patch_4">
    <path d="M 65.3832 285.693007 
L 178.5888 285.693007 
L 121.986 219.656407 
z
" clip-path="url(#pc33f237b25)" style="stroke: #000000; stroke-linejoin: miter"/>
   </g>
   <g id="matplotlib.axis_1"/>
   <g id="matplotlib.axis_2"/>
   <g id="patch_5">
    <path d="M 27.648 313.994407 
L 27.648 125.318407 
" style="fill: none; stroke: #dddddd; stroke-width: 0.6; stroke-linejoin: miter; stroke-linecap: square"/>
   </g>
   <g id="patch_6">
    <path d="M 216.324 313.994407 
L 216.324 125.318407 
" style="fill: none; stroke: #dddddd; stroke-width: 0.6; stroke-linejoin: miter; stroke-linecap: square"/>
   </g>
   <g id="patch_7">
    <path d="M 27.648 313.994407 
L 216.324 313.994407 
" style="fill: none; stroke: #dddddd; stroke-width: 0.6; stroke-linejoin: miter; stroke-linecap: square"/>
   </g>
   <g id="patch_8">
    <path d="M 27.648 125.318407 
L 216.324 125.318407 
" style="fill: none; stroke: #dddddd; stroke-width: 0.6; stroke-linejoin: miter; stroke-linecap: square"/>
   </g>
   <g id="text_1">
    <!-- 01_hourglass -->
    <g style="fill: #888888" transform="translate(100.312875 335.566184) scale(0.06 -0.06)">
     <defs>
      <path id="DejaVuSansMono-30" d="M 1509 2344 
Q 1509 2516 1629 2641 
Q 1750 2766 1919 2766 
Q 2094 2766 2219 2641 
Q 2344 2516 2344 2344 
Q 2344 2169 2220 2047 
Q 2097 1925 1919 1925 
Q 1744 1925 1626 2044 
Q 1509 2163 1509 2344 
z
M 1925 4250 
Q 1484 4250 1267 3775 
Q 1050 3300 1050 2328 
Q 1050 1359 1267 884 
Q 1484 409 1925 409 
Q 2369 409 2586 884 
Q 2803 1359 2803 2328 
Q 2803 3300 2586 3775 
Q 2369 4250 1925 4250 
z
M 1925 4750 
Q 2672 4750 3055 4137 
Q 3438 3525 3438 2328 
Q 3438 1134 3055 521 
Q 2672 -91 1925 -91 
Q 1178 -91 797 521 
Q 416 1134 416 2328 
Q 416 3525 797 4137 
Q 1178 4750 1925 4750 
z
" transform="scale(0.015625)"/>
      <path id="DejaVuSansMono-31" d="M 844 531 
L 1825 531 
L 1825 4097 
L 769 3859 
L 769 4434 
L 1819 4666 
L 2450 4666 
L 2450 531 
L 3419 531 
L 3419 0 
L 844 0 
L 844 531 
z
" transform="scale(0.015625)"/>
      <path id="DejaVuSansMono-5f" d="M 3853 -1259 
L 3853 -1509 
L 0 -1509 
L 0 -1259 
L 3853 -1259 
z
" transform="scale(0.015625)"/>
      <path id="DejaVuSansMono-68" d="M 3284 2169 
L 3284 0 
L 2706 0 
L 2706 2169 
Q 2706 2641 2540 2862 
Q 2375 3084 2022 3084 
Q 1619 3084 1401 2798 
Q 1184 2513 1184 1978 
L 1184 0 
L 609 0 
L 609 4863 
L 1184 4863 
L 1184 2975 
Q 1338 3275 1600 3429 
Q 1863 3584 2222 3584 
Q 2756 3584 3020 3232 
Q 3284 2881 3284 2169 
z
" transform="scale(0.015625)"/>
      <path id="DejaVuSansMono-6f" d="M 1925 3097 
Q 1488 3097 1263 2756 
Q 1038 2416 1038 1747 
Q 1038 1081 1263 739 
Q 1488 397 1925 397 
Q 2366 397 2591 739 
Q 2816 1081 2816 1747 
Q 2816 2416 2591 2756 
Q 2366 3097 1925 3097 
z
M 1925 3584 
Q 2653 3584 3039 3112 
Q 3425 2641 3425 1747 
Q 3425 850 3040 379 
Q 2656 -91 1925 -91 
Q 1197 -91 812 379 
Q 428 850 428 1747 
Q 428 2641 812 3112 
Q 1197 3584 1925 3584 
z
" transform="scale(0.015625)"/>
      <path id="DejaVuSansMono-75" d="M 609 1325 
L 609 3494 
L 1184 3494 
L 1184 1325 
Q 1184 853 1351 631 
Q 1519 409 1869 409 
Q 2275 409 2490 695 
Q 2706 981 2706 1516 
L 2706 3494 
L 3284 3494 
L 3284 0 
L 2706 0 
L 2706 525 
Q 2553 222 2289 65 
Q 2025 -91 1672 -91 
Q 1134 -91 871 261 
Q 609 613 609 1325 
z
" transform="scale(0.015625)"/>
      <path id="DejaVuSansMono-72" d="M 3609 2778 
Q 3425 2922 3234 2987 
Q 3044 3053 2816 3053 
Q 2278 3053 1993 2715 
Q 1709 2378 1709 1741 
L 1709 0 
L 1131 0 
L 1131 3500 
L 1709 3500 
L 1709 2816 
Q 1853 3188 2151 3386 
Q 2450 3584 2859 3584 
Q 3072 3584 3256 3531 
Q 3441 3478 3609 3366 
L 3609 2778 
z
" transform="scale(0.015625)"/>
      <path id="DejaVuSansMono-67" d="M 2681 1778 
Q 2681 2425 2470 2761 
Q 2259 3097 1856 3097 
Q 1434 3097 1212 2761 
Q 991 2425 991 1778 
Q 991 1131 1214 792 
Q 1438 453 1863 453 
Q 2259 453 2470 793 
Q 2681 1134 2681 1778 
z
M 3256 225 
Q 3256 -563 2884 -969 
Q 2513 -1375 1791 -1375 
Q 1553 -1375 1293 -1331 
Q 1034 -1288 775 -1203 
L 775 -634 
Q 1081 -778 1331 -847 
Q 1581 -916 1791 -916 
Q 2256 -916 2468 -662 
Q 2681 -409 2681 141 
L 2681 166 
L 2681 556 
Q 2544 263 2306 119 
Q 2069 -25 1728 -25 
Q 1116 -25 750 465 
Q 384 956 384 1778 
Q 384 2603 750 3093 
Q 1116 3584 1728 3584 
Q 2066 3584 2300 3450 
Q 2534 3316 2681 3034 
L 2681 3488 
L 3256 3488 
L 3256 225 
z
" transform="scale(0.015625)"/>
      <path id="DejaVuSansMono-6c" d="M 1997 1269 
Q 1997 881 2139 684 
Q 2281 488 2559 488 
L 3231 488 
L 3231 0 
L 2503 0 
Q 1988 0 1705 331 
Q 1422 663 1422 1269 
L 1422 4447 
L 500 4447 
L 500 4897 
L 1997 4897 
L 1997 1269 
z
" transform="scale(0.015625)"/>
      <path id="DejaVuSansMono-61" d="M 2194 1759 
L 2003 1759 
Q 1500 1759 1245 1582 
Q 991 1406 991 1056 
Q 991 741 1181 566 
Q 1372 391 1709 391 
Q 2184 391 2456 720 
Q 2728 1050 2731 1631 
L 2731 1759 
L 2194 1759 
z
M 3309 1997 
L 3309 0 
L 2731 0 
L 2731 519 
Q 2547 206 2267 57 
Q 1988 -91 1588 -91 
Q 1053 -91 734 211 
Q 416 513 416 1019 
Q 416 1603 808 1906 
Q 1200 2209 1959 2209 
L 2731 2209 
L 2731 2300 
Q 2728 2719 2518 2908 
Q 2309 3097 1850 3097 
Q 1556 3097 1256 3012 
Q 956 2928 672 2766 
L 672 3341 
Q 991 3463 1283 3523 
Q 1575 3584 1850 3584 
Q 2284 3584 2592 3456 
Q 2900 3328 3091 3072 
Q 3209 2916 3259 2686 
Q 3309 2456 3309 1997 
z
" transform="scale(0.015625)"/>
      <path id="DejaVuSansMono-73" d="M 3041 3378 
L 3041 2816 
Q 2794 2959 2544 3031 
Q 2294 3103 2034 3103 
Q 1644 3103 1451 2976 
Q 1259 2850 1259 2591 
Q 1259 2356 1403 2240 
Q 1547 2125 2119 2016 
L 2350 1972 
Q 2778 1891 2998 1647 
Q 3219 1403 3219 1013 
Q 3219 494 2850 201 
Q 2481 -91 1825 -91 
Q 1566 -91 1281 -36 
Q 997 19 666 128 
L 666 722 
Q 988 556 1281 473 
Q 1575 391 1838 391 
Q 2219 391 2428 545 
Q 2638 700 2638 978 
Q 2638 1378 1872 1531 
L 1847 1538 
L 1631 1581 
Q 1134 1678 906 1908 
Q 678 2138 678 2534 
Q 678 3038 1018 3311 
Q 1359 3584 1991 3584 
Q 2272 3584 2531 3532 
Q 2791 3481 3041 3378 
z
" transform="scale(0.015625)"/>
     </defs>
     <use xlink:href="#DejaVuSansMono-30"/>
     <use xlink:href="#DejaVuSansMono-31" transform="translate(60.205078 0)"/>
     <use xlink:href="#DejaVuSansMono-5f" transform="translate(120.410156 0)"/>
     <use xlink:href="#DejaVuSansMono-68" transform="translate(180.615234 0)"/>
     <use xlink:href="#DejaVuSansMono-6f" transform="translate(240.820312 0)"/>
     <use xlink:href="#DejaVuSansMono-75" transform="translate(301.025391 0)"/>
     <use xlink:href="#DejaVuSansMono-72" transform="translate(361.230469 0)"/>
     <use xlink:href="#DejaVuSansMono-67" transform="translate(421.435547 0)"/>
     <use xlink:href="#DejaVuSansMono-6c" transform="translate(481.640625 0)"/>
     <use xlink:href="#DejaVuSansMono-61" transform="translate(541.845703 0)"/>
     <use xlink:href="#DejaVuSansMono-73" transform="translate(602.050781 0)"/>
     <use xlink:href="#DejaVuSansMono-73" transform="translate(662.255859 0)"/>
    </g>
   </g>
   <g id="text_2">
    <!-- Senzu hourglass  ★ -->
    <g style="fill: #1a1a1a" transform="translate(78.188344 119.318407) scale(0.09 -0.09)">
     <defs>
      <path id="DejaVuSans-53" d="M 3425 4513 
L 3425 3897 
Q 3066 4069 2747 4153 
Q 2428 4238 2131 4238 
Q 1616 4238 1336 4038 
Q 1056 3838 1056 3469 
Q 1056 3159 1242 3001 
Q 1428 2844 1947 2747 
L 2328 2669 
Q 3034 2534 3370 2195 
Q 3706 1856 3706 1288 
Q 3706 609 3251 259 
Q 2797 -91 1919 -91 
Q 1588 -91 1214 -16 
Q 841 59 441 206 
L 441 856 
Q 825 641 1194 531 
Q 1563 422 1919 422 
Q 2459 422 2753 634 
Q 3047 847 3047 1241 
Q 3047 1584 2836 1778 
Q 2625 1972 2144 2069 
L 1759 2144 
Q 1053 2284 737 2584 
Q 422 2884 422 3419 
Q 422 4038 858 4394 
Q 1294 4750 2059 4750 
Q 2388 4750 2728 4690 
Q 3069 4631 3425 4513 
z
" transform="scale(0.015625)"/>
      <path id="DejaVuSans-65" d="M 3597 1894 
L 3597 1613 
L 953 1613 
Q 991 1019 1311 708 
Q 1631 397 2203 397 
Q 2534 397 2845 478 
Q 3156 559 3463 722 
L 3463 178 
Q 3153 47 2828 -22 
Q 2503 -91 2169 -91 
Q 1331 -91 842 396 
Q 353 884 353 1716 
Q 353 2575 817 3079 
Q 1281 3584 2069 3584 
Q 2775 3584 3186 3129 
Q 3597 2675 3597 1894 
z
M 3022 2063 
Q 3016 2534 2758 2815 
Q 2500 3097 2075 3097 
Q 1594 3097 1305 2825 
Q 1016 2553 972 2059 
L 3022 2063 
z
" transform="scale(0.015625)"/>
      <path id="DejaVuSans-6e" d="M 3513 2113 
L 3513 0 
L 2938 0 
L 2938 2094 
Q 2938 2591 2744 2837 
Q 2550 3084 2163 3084 
Q 1697 3084 1428 2787 
Q 1159 2491 1159 1978 
L 1159 0 
L 581 0 
L 581 3500 
L 1159 3500 
L 1159 2956 
Q 1366 3272 1645 3428 
Q 1925 3584 2291 3584 
Q 2894 3584 3203 3211 
Q 3513 2838 3513 2113 
z
" transform="scale(0.015625)"/>
      <path id="DejaVuSans-7a" d="M 353 3500 
L 3084 3500 
L 3084 2975 
L 922 459 
L 3084 459 
L 3084 0 
L 275 0 
L 275 525 
L 2438 3041 
L 353 3041 
L 353 3500 
z
" transform="scale(0.015625)"/>
      <path id="DejaVuSans-75" d="M 544 1381 
L 544 3500 
L 1119 3500 
L 1119 1403 
Q 1119 906 1312 657 
Q 1506 409 1894 409 
Q 2359 409 2629 706 
Q 2900 1003 2900 1516 
L 2900 3500 
L 3475 3500 
L 3475 0 
L 2900 0 
L 2900 538 
Q 2691 219 2414 64 
Q 2138 -91 1772 -91 
Q 1169 -91 856 284 
Q 544 659 544 1381 
z
M 1991 3584 
L 1991 3584 
z
" transform="scale(0.015625)"/>
      <path id="DejaVuSans-20" transform="scale(0.015625)"/>
      <path id="DejaVuSans-68" d="M 3513 2113 
L 3513 0 
L 2938 0 
L 2938 2094 
Q 2938 2591 2744 2837 
Q 2550 3084 2163 3084 
Q 1697 3084 1428 2787 
Q 1159 2491 1159 1978 
L 1159 0 
L 581 0 
L 581 4863 
L 1159 4863 
L 1159 2956 
Q 1366 3272 1645 3428 
Q 1925 3584 2291 3584 
Q 2894 3584 3203 3211 
Q 3513 2838 3513 2113 
z
" transform="scale(0.015625)"/>
      <path id="DejaVuSans-6f" d="M 1959 3097 
Q 1497 3097 1228 2736 
Q 959 2375 959 1747 
Q 959 1119 1226 758 
Q 1494 397 1959 397 
Q 2419 397 2687 759 
Q 2956 1122 2956 1747 
Q 2956 2369 2687 2733 
Q 2419 3097 1959 3097 
z
M 1959 3584 
Q 2709 3584 3137 3096 
Q 3566 2609 3566 1747 
Q 3566 888 3137 398 
Q 2709 -91 1959 -91 
Q 1206 -91 779 398 
Q 353 888 353 1747 
Q 353 2609 779 3096 
Q 1206 3584 1959 3584 
z
" transform="scale(0.015625)"/>
      <path id="DejaVuSans-72" d="M 2631 2963 
Q 2534 3019 2420 3045 
Q 2306 3072 2169 3072 
Q 1681 3072 1420 2755 
Q 1159 2438 1159 1844 
L 1159 0 
L 581 0 
L 581 3500 
L 1159 3500 
L 1159 2956 
Q 1341 3275 1631 3429 
Q 1922 3584 2338 3584 
Q 2397 3584 2469 3576 
Q 2541 3569 2628 3553 
L 2631 2963 
z
" transform="scale(0.015625)"/>
      <path id="DejaVuSans-67" d="M 2906 1791 
Q 2906 2416 2648 2759 
Q 2391 3103 1925 3103 
Q 1463 3103 1205 2759 
Q 947 2416 947 1791 
Q 947 1169 1205 825 
Q 1463 481 1925 481 
Q 2391 481 2648 825 
Q 2906 1169 2906 1791 
z
M 3481 434 
Q 3481 -459 3084 -895 
Q 2688 -1331 1869 -1331 
Q 1566 -1331 1297 -1286 
Q 1028 -1241 775 -1147 
L 775 -588 
Q 1028 -725 1275 -790 
Q 1522 -856 1778 -856 
Q 2344 -856 2625 -561 
Q 2906 -266 2906 331 
L 2906 616 
Q 2728 306 2450 153 
Q 2172 0 1784 0 
Q 1141 0 747 490 
Q 353 981 353 1791 
Q 353 2603 747 3093 
Q 1141 3584 1784 3584 
Q 2172 3584 2450 3431 
Q 2728 3278 2906 2969 
L 2906 3500 
L 3481 3500 
L 3481 434 
z
" transform="scale(0.015625)"/>
      <path id="DejaVuSans-6c" d="M 603 4863 
L 1178 4863 
L 1178 0 
L 603 0 
L 603 4863 
z
" transform="scale(0.015625)"/>
      <path id="DejaVuSans-61" d="M 2194 1759 
Q 1497 1759 1228 1600 
Q 959 1441 959 1056 
Q 959 750 1161 570 
Q 1363 391 1709 391 
Q 2188 391 2477 730 
Q 2766 1069 2766 1631 
L 2766 1759 
L 2194 1759 
z
M 3341 1997 
L 3341 0 
L 2766 0 
L 2766 531 
Q 2569 213 2275 61 
Q 1981 -91 1556 -91 
Q 1019 -91 701 211 
Q 384 513 384 1019 
Q 384 1609 779 1909 
Q 1175 2209 1959 2209 
L 2766 2209 
L 2766 2266 
Q 2766 2663 2505 2880 
Q 2244 3097 1772 3097 
Q 1472 3097 1187 3025 
Q 903 2953 641 2809 
L 641 3341 
Q 956 3463 1253 3523 
Q 1550 3584 1831 3584 
Q 2591 3584 2966 3190 
Q 3341 2797 3341 1997 
z
" transform="scale(0.015625)"/>
      <path id="DejaVuSans-73" d="M 2834 3397 
L 2834 2853 
Q 2591 2978 2328 3040 
Q 2066 3103 1784 3103 
Q 1356 3103 1142 2972 
Q 928 2841 928 2578 
Q 928 2378 1081 2264 
Q 1234 2150 1697 2047 
L 1894 2003 
Q 2506 1872 2764 1633 
Q 3022 1394 3022 966 
Q 3022 478 2636 193 
Q 2250 -91 1575 -91 
Q 1294 -91 989 -36 
Q 684 19 347 128 
L 347 722 
Q 666 556 975 473 
Q 1284 391 1588 391 
Q 1994 391 2212 530 
Q 2431 669 2431 922 
Q 2431 1156 2273 1281 
Q 2116 1406 1581 1522 
L 1381 1569 
Q 847 1681 609 1914 
Q 372 2147 372 2553 
Q 372 3047 722 3315 
Q 1072 3584 1716 3584 
Q 2034 3584 2315 3537 
Q 2597 3491 2834 3397 
z
" transform="scale(0.015625)"/>
      <path id="DejaVuSans-2605" d="M 416 2850 
L 2288 2850 
L 2869 4628 
L 3453 2850 
L 5322 2850 
L 3809 1747 
L 4391 -28 
L 2869 1072 
L 1350 -28 
L 1928 1747 
L 416 2850 
z
" transform="scale(0.015625)"/>
     </defs>
     <use xlink:href="#DejaVuSans-53"/>
     <use xlink:href="#DejaVuSans-65" transform="translate(63.476562 0)"/>
     <use xlink:href="#DejaVuSans-6e" transform="translate(125 0)"/>
     <use xlink:href="#DejaVuSans-7a" transform="translate(188.378906 0)"/>
     <use xlink:href="#DejaVuSans-75" transform="translate(240.869141 0)"/>
     <use xlink:href="#DejaVuSans-20" transform="translate(304.248047 0)"/>
     <use xlink:href="#DejaVuSans-68" transform="translate(336.035156 0)"/>
     <use xlink:href="#DejaVuSans-6f" transform="translate(399.414062 0)"/>
     <use xlink:href="#DejaVuSans-75" transform="translate(460.595703 0)"/>
     <use xlink:href="#DejaVuSans-72" transform="translate(523.974609 0)"/>
     <use xlink:href="#DejaVuSans-67" transform="translate(563.337891 0)"/>
     <use xlink:href="#DejaVuSans-6c" transform="translate(626.814453 0)"/>
     <use xlink:href="#DejaVuSans-61" transform="translate(654.597656 0)"/>
     <use xlink:href="#DejaVuSans-73" transform="translate(715.876953 0)"/>
     <use xlink:href="#DejaVuSans-73" transform="translate(767.976562 0)"/>
     <use xlink:href="#DejaVuSans-20" transform="translate(820.076172 0)"/>
     <use xlink:href="#DejaVuSans-20" transform="translate(851.863281 0)"/>
     <use xlink:href="#DejaVuSans-2605" transform="translate(883.650391 0)"/>
    </g>
   </g>
  </g>
  <g id="axes_2">
   <g id="patch_9">
    <path d="M 227.124 313.994407 
L 415.8 313.994407 
L 415.8 125.318407 
L 227.124 125.318407 
z
" style="fill: #ffffff"/>
   </g>
   <g id="patch_10">
    <path d="M 328.289242 268.23476 
C 346.127422 265.727767 362.518036 258.204595 373.851242 247.322135 
C 385.184448 236.439675 390.53494 223.086432 388.724335 210.203302 
C 386.913729 197.320173 378.089853 185.959007 364.196064 178.62197 
C 350.302274 171.284933 332.472937 168.571062 314.634758 171.078054 
C 296.796578 173.585047 280.405964 181.108219 269.072758 191.990679 
C 257.739552 202.873139 252.38906 216.226382 254.199665 229.109512 
C 256.010271 241.992641 264.834147 253.353807 278.727936 260.690844 
C 292.621726 268.027881 310.451063 270.741752 328.289242 268.23476 
z
" clip-path="url(#p62e60c5e10)" style="stroke: #000000; stroke-linejoin: miter"/>
   </g>
   <g id="patch_11">
    <path d="M 264.8592 213.996127 
C 298.82088 242.297527 344.10312 197.015287 378.0648 225.316687 
" clip-path="url(#p62e60c5e10)" style="fill: none; stroke: #ffffff; stroke-width: 3.5; stroke-linejoin: miter"/>
   </g>
   <g id="matplotlib.axis_3"/>
   <g id="matplotlib.axis_4"/>
   <g id="patch_12">
    <path d="M 227.124 313.994407 
L 227.124 125.318407 
" style="fill: none; stroke: #dddddd; stroke-width: 0.6; stroke-linejoin: miter; stroke-linecap: square"/>
   </g>
   <g id="patch_13">
    <path d="M 415.8 313.994407 
L 415.8 125.318407 
" style="fill: none; stroke: #dddddd; stroke-width: 0.6; stroke-linejoin: miter; stroke-linecap: square"/>
   </g>
   <g id="patch_14">
    <path d="M 227.124 313.994407 
L 415.8 313.994407 
" style="fill: none; stroke: #dddddd; stroke-width: 0.6; stroke-linejoin: miter; stroke-linecap: square"/>
   </g>
   <g id="patch_15">
    <path d="M 227.124 125.318407 
L 415.8 125.318407 
" style="fill: none; stroke: #dddddd; stroke-width: 0.6; stroke-linejoin: miter; stroke-linecap: square"/>
   </g>
   <g id="text_3">
    <!-- 02_bean -->
    <g style="fill: #888888" transform="translate(308.819344 335.534309) scale(0.06 -0.06)">
     <defs>
      <path id="DejaVuSansMono-32" d="M 1166 531 
L 3309 531 
L 3309 0 
L 475 0 
L 475 531 
Q 1059 1147 1496 1619 
Q 1934 2091 2100 2284 
Q 2413 2666 2522 2902 
Q 2631 3138 2631 3384 
Q 2631 3775 2401 3997 
Q 2172 4219 1772 4219 
Q 1488 4219 1175 4116 
Q 863 4013 513 3803 
L 513 4441 
Q 834 4594 1145 4672 
Q 1456 4750 1759 4750 
Q 2444 4750 2861 4386 
Q 3278 4022 3278 3431 
Q 3278 3131 3139 2831 
Q 3000 2531 2688 2169 
Q 2513 1966 2180 1606 
Q 1847 1247 1166 531 
z
" transform="scale(0.015625)"/>
      <path id="DejaVuSansMono-62" d="M 2869 1747 
Q 2869 2416 2656 2756 
Q 2444 3097 2028 3097 
Q 1609 3097 1393 2755 
Q 1178 2413 1178 1747 
Q 1178 1084 1393 740 
Q 1609 397 2028 397 
Q 2444 397 2656 737 
Q 2869 1078 2869 1747 
z
M 1178 3053 
Q 1316 3309 1558 3446 
Q 1800 3584 2119 3584 
Q 2750 3584 3112 3098 
Q 3475 2613 3475 1759 
Q 3475 894 3111 401 
Q 2747 -91 2113 -91 
Q 1800 -91 1561 45 
Q 1322 181 1178 441 
L 1178 0 
L 603 0 
L 603 4863 
L 1178 4863 
L 1178 3053 
z
" transform="scale(0.015625)"/>
      <path id="DejaVuSansMono-65" d="M 3475 1894 
L 3475 1613 
L 984 1613 
L 984 1594 
Q 984 1022 1282 709 
Q 1581 397 2125 397 
Q 2400 397 2700 484 
Q 3000 572 3341 750 
L 3341 178 
Q 3013 44 2708 -23 
Q 2403 -91 2119 -91 
Q 1303 -91 843 398 
Q 384 888 384 1747 
Q 384 2584 834 3084 
Q 1284 3584 2034 3584 
Q 2703 3584 3089 3131 
Q 3475 2678 3475 1894 
z
M 2900 2063 
Q 2888 2569 2661 2833 
Q 2434 3097 2009 3097 
Q 1594 3097 1325 2822 
Q 1056 2547 1006 2059 
L 2900 2063 
z
" transform="scale(0.015625)"/>
      <path id="DejaVuSansMono-6e" d="M 3284 2169 
L 3284 0 
L 2706 0 
L 2706 2169 
Q 2706 2641 2540 2862 
Q 2375 3084 2022 3084 
Q 1619 3084 1401 2798 
Q 1184 2513 1184 1978 
L 1184 0 
L 609 0 
L 609 3500 
L 1184 3500 
L 1184 2975 
Q 1338 3275 1600 3429 
Q 1863 3584 2222 3584 
Q 2756 3584 3020 3232 
Q 3284 2881 3284 2169 
z
" transform="scale(0.015625)"/>
     </defs>
     <use xlink:href="#DejaVuSansMono-30"/>
     <use xlink:href="#DejaVuSansMono-32" transform="translate(60.205078 0)"/>
     <use xlink:href="#DejaVuSansMono-5f" transform="translate(120.410156 0)"/>
     <use xlink:href="#DejaVuSansMono-62" transform="translate(180.615234 0)"/>
     <use xlink:href="#DejaVuSansMono-65" transform="translate(240.820312 0)"/>
     <use xlink:href="#DejaVuSansMono-61" transform="translate(301.025391 0)"/>
     <use xlink:href="#DejaVuSansMono-6e" transform="translate(361.230469 0)"/>
    </g>
   </g>
   <g id="text_4">
    <!-- Coffee bean  ★ -->
    <g style="fill: #1a1a1a" transform="translate(287.299969 119.318407) scale(0.09 -0.09)">
     <defs>
      <path id="DejaVuSans-43" d="M 4122 4306 
L 4122 3641 
Q 3803 3938 3442 4084 
Q 3081 4231 2675 4231 
Q 1875 4231 1450 3742 
Q 1025 3253 1025 2328 
Q 1025 1406 1450 917 
Q 1875 428 2675 428 
Q 3081 428 3442 575 
Q 3803 722 4122 1019 
L 4122 359 
Q 3791 134 3420 21 
Q 3050 -91 2638 -91 
Q 1578 -91 968 557 
Q 359 1206 359 2328 
Q 359 3453 968 4101 
Q 1578 4750 2638 4750 
Q 3056 4750 3426 4639 
Q 3797 4528 4122 4306 
z
" transform="scale(0.015625)"/>
      <path id="DejaVuSans-66" d="M 2375 4863 
L 2375 4384 
L 1825 4384 
Q 1516 4384 1395 4259 
Q 1275 4134 1275 3809 
L 1275 3500 
L 2222 3500 
L 2222 3053 
L 1275 3053 
L 1275 0 
L 697 0 
L 697 3053 
L 147 3053 
L 147 3500 
L 697 3500 
L 697 3744 
Q 697 4328 969 4595 
Q 1241 4863 1831 4863 
L 2375 4863 
z
" transform="scale(0.015625)"/>
      <path id="DejaVuSans-62" d="M 3116 1747 
Q 3116 2381 2855 2742 
Q 2594 3103 2138 3103 
Q 1681 3103 1420 2742 
Q 1159 2381 1159 1747 
Q 1159 1113 1420 752 
Q 1681 391 2138 391 
Q 2594 391 2855 752 
Q 3116 1113 3116 1747 
z
M 1159 2969 
Q 1341 3281 1617 3432 
Q 1894 3584 2278 3584 
Q 2916 3584 3314 3078 
Q 3713 2572 3713 1747 
Q 3713 922 3314 415 
Q 2916 -91 2278 -91 
Q 1894 -91 1617 61 
Q 1341 213 1159 525 
L 1159 0 
L 581 0 
L 581 4863 
L 1159 4863 
L 1159 2969 
z
" transform="scale(0.015625)"/>
     </defs>
     <use xlink:href="#DejaVuSans-43"/>
     <use xlink:href="#DejaVuSans-6f" transform="translate(69.824219 0)"/>
     <use xlink:href="#DejaVuSans-66" transform="translate(131.005859 0)"/>
     <use xlink:href="#DejaVuSans-66" transform="translate(166.210938 0)"/>
     <use xlink:href="#DejaVuSans-65" transform="translate(201.416016 0)"/>
     <use xlink:href="#DejaVuSans-65" transform="translate(262.939453 0)"/>
     <use xlink:href="#DejaVuSans-20" transform="translate(324.462891 0)"/>
     <use xlink:href="#DejaVuSans-62" transform="translate(356.25 0)"/>
     <use xlink:href="#DejaVuSans-65" transform="translate(419.726562 0)"/>
     <use xlink:href="#DejaVuSans-61" transform="translate(481.25 0)"/>
     <use xlink:href="#DejaVuSans-6e" transform="translate(542.529297 0)"/>
     <use xlink:href="#DejaVuSans-20" transform="translate(605.908203 0)"/>
     <use xlink:href="#DejaVuSans-20" transform="translate(637.695312 0)"/>
     <use xlink:href="#DejaVuSans-2605" transform="translate(669.482422 0)"/>
    </g>
   </g>
  </g>
  <g id="axes_3">
   <g id="patch_16">
    <path d="M 426.6 313.994407 
L 615.276 313.994407 
L 615.276 125.318407 
L 426.6 125.318407 
z
" style="fill: #ffffff"/>
   </g>
   <g id="patch_17">
    <path d="M 520.938 134.752207 
L 520.938 181.921207 
M 520.938 181.921207 
L 486.97632 210.222607 
M 520.938 181.921207 
M 520.938 181.921207 
L 554.89968 210.222607 
" clip-path="url(#p531df1a118)" style="fill: none; stroke: #000000; stroke-width: 3.2; stroke-linecap: round"/>
   </g>
   <g id="patch_18">
    <path d="M 520.938 151.733047 
Q 543.57912 140.412487 551.12616 155.506567 
Q 543.57912 163.053607 520.938 155.506567 
z
" clip-path="url(#p531df1a118)" style="stroke: #000000; stroke-linejoin: miter"/>
   </g>
   <g id="patch_19">
    <path d="M 483.2028 283.806247 
C 494.211041 283.806247 504.769895 279.432626 512.553897 271.648624 
C 520.337899 263.864622 524.71152 253.305768 524.71152 242.297527 
C 524.71152 231.289286 520.337899 220.730432 512.553897 212.94643 
C 504.769895 205.162428 494.211041 200.788807 483.2028 200.788807 
C 472.194559 200.788807 461.635705 205.162428 453.851703 212.94643 
C 446.067701 220.730432 441.69408 231.289286 441.69408 242.297527 
C 441.69408 253.305768 446.067701 263.864622 453.851703 271.648624 
C 461.635705 279.432626 472.194559 283.806247 483.2028 283.806247 
z
" clip-path="url(#p531df1a118)" style="stroke: #000000; stroke-linejoin: miter"/>
   </g>
   <g id="patch_20">
    <path d="M 558.6732 283.806247 
C 569.681441 283.806247 580.240295 279.432626 588.024297 271.648624 
C 595.808299 263.864622 600.18192 253.305768 600.18192 242.297527 
C 600.18192 231.289286 595.808299 220.730432 588.024297 212.94643 
C 580.240295 205.162428 569.681441 200.788807 558.6732 200.788807 
C 547.664959 200.788807 537.106105 205.162428 529.322103 212.94643 
C 521.538101 220.730432 517.16448 231.289286 517.16448 242.297527 
C 517.16448 253.305768 521.538101 263.864622 529.322103 271.648624 
C 537.106105 279.432626 547.664959 283.806247 558.6732 283.806247 
z
" clip-path="url(#p531df1a118)" style="stroke: #000000; stroke-linejoin: miter"/>
   </g>
   <g id="patch_21">
    <path d="M 468.10872 233.241079 
C 469.709919 233.241079 471.245752 232.604916 472.377971 231.472697 
C 473.510189 230.340479 474.146352 228.804646 474.146352 227.203447 
C 474.146352 225.602248 473.510189 224.066415 472.377971 222.934196 
C 471.245752 221.801978 469.709919 221.165815 468.10872 221.165815 
C 466.507521 221.165815 464.971688 221.801978 463.839469 222.934196 
C 462.707251 224.066415 462.071088 225.602248 462.071088 227.203447 
C 462.071088 228.804646 462.707251 230.340479 463.839469 231.472697 
C 464.971688 232.604916 466.507521 233.241079 468.10872 233.241079 
z
" clip-path="url(#p531df1a118)" style="fill: #ffffff; stroke: #ffffff; stroke-linejoin: miter"/>
   </g>
   <g id="patch_22">
    <path d="M 543.57912 233.241079 
C 545.180319 233.241079 546.716152 232.604916 547.848371 231.472697 
C 548.980589 230.340479 549.616752 228.804646 549.616752 227.203447 
C 549.616752 225.602248 548.980589 224.066415 547.848371 222.934196 
C 546.716152 221.801978 545.180319 221.165815 543.57912 221.165815 
C 541.977921 221.165815 540.442088 221.801978 539.309869 222.934196 
C 538.177651 224.066415 537.541488 225.602248 537.541488 227.203447 
C 537.541488 228.804646 538.177651 230.340479 539.309869 231.472697 
C 540.442088 232.604916 541.977921 233.241079 543.57912 233.241079 
z
" clip-path="url(#p531df1a118)" style="fill: #ffffff; stroke: #ffffff; stroke-linejoin: miter"/>
   </g>
   <g id="matplotlib.axis_5"/>
   <g id="matplotlib.axis_6"/>
   <g id="patch_23">
    <path d="M 426.6 313.994407 
L 426.6 125.318407 
" style="fill: none; stroke: #dddddd; stroke-width: 0.6; stroke-linejoin: miter; stroke-linecap: square"/>
   </g>
   <g id="patch_24">
    <path d="M 615.276 313.994407 
L 615.276 125.318407 
" style="fill: none; stroke: #dddddd; stroke-width: 0.6; stroke-linejoin: miter; stroke-linecap: square"/>
   </g>
   <g id="patch_25">
    <path d="M 426.6 313.994407 
L 615.276 313.994407 
" style="fill: none; stroke: #dddddd; stroke-width: 0.6; stroke-linejoin: miter; stroke-linecap: square"/>
   </g>
   <g id="patch_26">
    <path d="M 426.6 125.318407 
L 615.276 125.318407 
" style="fill: none; stroke: #dddddd; stroke-width: 0.6; stroke-linejoin: miter; stroke-linecap: square"/>
   </g>
   <g id="text_5">
    <!-- 03_cherry -->
    <g style="fill: #888888" transform="translate(504.683156 335.534309) scale(0.06 -0.06)">
     <defs>
      <path id="DejaVuSansMono-33" d="M 2425 2497 
Q 2884 2375 3128 2064 
Q 3372 1753 3372 1288 
Q 3372 644 2939 276 
Q 2506 -91 1741 -91 
Q 1419 -91 1084 -31 
Q 750 28 428 141 
L 428 769 
Q 747 603 1056 522 
Q 1366 441 1672 441 
Q 2191 441 2469 675 
Q 2747 909 2747 1350 
Q 2747 1756 2469 1995 
Q 2191 2234 1716 2234 
L 1234 2234 
L 1234 2753 
L 1716 2753 
Q 2150 2753 2394 2943 
Q 2638 3134 2638 3475 
Q 2638 3834 2411 4026 
Q 2184 4219 1766 4219 
Q 1488 4219 1191 4156 
Q 894 4094 569 3969 
L 569 4550 
Q 947 4650 1242 4700 
Q 1538 4750 1766 4750 
Q 2447 4750 2855 4408 
Q 3263 4066 3263 3500 
Q 3263 3116 3048 2859 
Q 2834 2603 2425 2497 
z
" transform="scale(0.015625)"/>
      <path id="DejaVuSansMono-63" d="M 3316 178 
Q 3084 44 2839 -23 
Q 2594 -91 2338 -91 
Q 1525 -91 1067 396 
Q 609 884 609 1747 
Q 609 2609 1067 3096 
Q 1525 3584 2338 3584 
Q 2591 3584 2831 3518 
Q 3072 3453 3316 3316 
L 3316 2713 
Q 3088 2916 2858 3006 
Q 2628 3097 2338 3097 
Q 1797 3097 1506 2747 
Q 1216 2397 1216 1747 
Q 1216 1100 1508 748 
Q 1800 397 2338 397 
Q 2638 397 2875 489 
Q 3113 581 3316 775 
L 3316 178 
z
" transform="scale(0.015625)"/>
      <path id="DejaVuSansMono-79" d="M 2681 1125 
Q 2538 759 2316 163 
Q 2006 -663 1900 -844 
Q 1756 -1088 1540 -1209 
Q 1325 -1331 1038 -1331 
L 575 -1331 
L 575 -850 
L 916 -850 
Q 1169 -850 1312 -703 
Q 1456 -556 1678 56 
L 325 3500 
L 934 3500 
L 1972 763 
L 2994 3500 
L 3603 3500 
L 2681 1125 
z
" transform="scale(0.015625)"/>
     </defs>
     <use xlink:href="#DejaVuSansMono-30"/>
     <use xlink:href="#DejaVuSansMono-33" transform="translate(60.205078 0)"/>
     <use xlink:href="#DejaVuSansMono-5f" transform="translate(120.410156 0)"/>
     <use xlink:href="#DejaVuSansMono-63" transform="translate(180.615234 0)"/>
     <use xlink:href="#DejaVuSansMono-68" transform="translate(240.820312 0)"/>
     <use xlink:href="#DejaVuSansMono-65" transform="translate(301.025391 0)"/>
     <use xlink:href="#DejaVuSansMono-72" transform="translate(361.230469 0)"/>
     <use xlink:href="#DejaVuSansMono-72" transform="translate(421.435547 0)"/>
     <use xlink:href="#DejaVuSansMono-79" transform="translate(481.640625 0)"/>
    </g>
   </g>
   <g id="text_6">
    <!-- Coffee cherry pair  ★ -->
    <g style="fill: #1a1a1a" transform="translate(473.486906 119.318407) scale(0.09 -0.09)">
     <defs>
      <path id="DejaVuSans-63" d="M 3122 3366 
L 3122 2828 
Q 2878 2963 2633 3030 
Q 2388 3097 2138 3097 
Q 1578 3097 1268 2742 
Q 959 2388 959 1747 
Q 959 1106 1268 751 
Q 1578 397 2138 397 
Q 2388 397 2633 464 
Q 2878 531 3122 666 
L 3122 134 
Q 2881 22 2623 -34 
Q 2366 -91 2075 -91 
Q 1284 -91 818 406 
Q 353 903 353 1747 
Q 353 2603 823 3093 
Q 1294 3584 2113 3584 
Q 2378 3584 2631 3529 
Q 2884 3475 3122 3366 
z
" transform="scale(0.015625)"/>
      <path id="DejaVuSans-79" d="M 2059 -325 
Q 1816 -950 1584 -1140 
Q 1353 -1331 966 -1331 
L 506 -1331 
L 506 -850 
L 844 -850 
Q 1081 -850 1212 -737 
Q 1344 -625 1503 -206 
L 1606 56 
L 191 3500 
L 800 3500 
L 1894 763 
L 2988 3500 
L 3597 3500 
L 2059 -325 
z
" transform="scale(0.015625)"/>
      <path id="DejaVuSans-70" d="M 1159 525 
L 1159 -1331 
L 581 -1331 
L 581 3500 
L 1159 3500 
L 1159 2969 
Q 1341 3281 1617 3432 
Q 1894 3584 2278 3584 
Q 2916 3584 3314 3078 
Q 3713 2572 3713 1747 
Q 3713 922 3314 415 
Q 2916 -91 2278 -91 
Q 1894 -91 1617 61 
Q 1341 213 1159 525 
z
M 3116 1747 
Q 3116 2381 2855 2742 
Q 2594 3103 2138 3103 
Q 1681 3103 1420 2742 
Q 1159 2381 1159 1747 
Q 1159 1113 1420 752 
Q 1681 391 2138 391 
Q 2594 391 2855 752 
Q 3116 1113 3116 1747 
z
" transform="scale(0.015625)"/>
      <path id="DejaVuSans-69" d="M 603 3500 
L 1178 3500 
L 1178 0 
L 603 0 
L 603 3500 
z
M 603 4863 
L 1178 4863 
L 1178 4134 
L 603 4134 
L 603 4863 
z
" transform="scale(0.015625)"/>
     </defs>
     <use xlink:href="#DejaVuSans-43"/>
     <use xlink:href="#DejaVuSans-6f" transform="translate(69.824219 0)"/>
     <use xlink:href="#DejaVuSans-66" transform="translate(131.005859 0)"/>
     <use xlink:href="#DejaVuSans-66" transform="translate(166.210938 0)"/>
     <use xlink:href="#DejaVuSans-65" transform="translate(201.416016 0)"/>
     <use xlink:href="#DejaVuSans-65" transform="translate(262.939453 0)"/>
     <use xlink:href="#DejaVuSans-20" transform="translate(324.462891 0)"/>
     <use xlink:href="#DejaVuSans-63" transform="translate(356.25 0)"/>
     <use xlink:href="#DejaVuSans-68" transform="translate(411.230469 0)"/>
     <use xlink:href="#DejaVuSans-65" transform="translate(474.609375 0)"/>
     <use xlink:href="#DejaVuSans-72" transform="translate(536.132812 0)"/>
     <use xlink:href="#DejaVuSans-72" transform="translate(575.496094 0)"/>
     <use xlink:href="#DejaVuSans-79" transform="translate(616.609375 0)"/>
     <use xlink:href="#DejaVuSans-20" transform="translate(675.789062 0)"/>
     <use xlink:href="#DejaVuSans-70" transform="translate(707.576172 0)"/>
     <use xlink:href="#DejaVuSans-61" transform="translate(771.052734 0)"/>
     <use xlink:href="#DejaVuSans-69" transform="translate(832.332031 0)"/>
     <use xlink:href="#DejaVuSans-72" transform="translate(860.115234 0)"/>
     <use xlink:href="#DejaVuSans-20" transform="translate(901.228516 0)"/>
     <use xlink:href="#DejaVuSans-20" transform="translate(933.015625 0)"/>
     <use xlink:href="#DejaVuSans-2605" transform="translate(964.802734 0)"/>
    </g>
   </g>
  </g>
  <g id="axes_4">
   <g id="patch_27">
    <path d="M 626.076 313.994407 
L 814.752 313.994407 
L 814.752 125.318407 
L 626.076 125.318407 
z
" style="fill: #ffffff"/>
   </g>
   <g id="patch_28">
    <path d="M 656.26416 180.034447 
L 784.56384 180.034447 
Q 788.33736 180.034447 788.33736 176.260927 
L 788.33736 168.713887 
Q 788.33736 164.940367 784.56384 164.940367 
L 656.26416 164.940367 
Q 652.49064 164.940367 652.49064 168.713887 
L 652.49064 176.260927 
Q 652.49064 180.034447 656.26416 180.034447 
z
" clip-path="url(#p4960b36dba)" style="stroke: #000000; stroke-linejoin: miter"/>
   </g>
   <g id="patch_29">
    <path d="M 663.8112 180.034447 
L 777.0168 180.034447 
L 739.2816 280.032727 
L 701.5464 280.032727 
z
" clip-path="url(#p4960b36dba)" style="stroke: #000000; stroke-linejoin: miter"/>
   </g>
   <g id="patch_30">
    <path d="M 718.52724 298.900327 
L 722.30076 298.900327 
Q 727.96104 298.900327 727.96104 293.240047 
L 727.96104 285.693007 
Q 727.96104 280.032727 722.30076 280.032727 
L 718.52724 280.032727 
Q 712.86696 280.032727 712.86696 285.693007 
L 712.86696 293.240047 
Q 712.86696 298.900327 718.52724 298.900327 
z
" clip-path="url(#p4960b36dba)" style="stroke: #000000; stroke-linejoin: miter"/>
   </g>
   <g id="matplotlib.axis_7"/>
   <g id="matplotlib.axis_8"/>
   <g id="patch_31">
    <path d="M 626.076 313.994407 
L 626.076 125.318407 
" style="fill: none; stroke: #dddddd; stroke-width: 0.6; stroke-linejoin: miter; stroke-linecap: square"/>
   </g>
   <g id="patch_32">
    <path d="M 814.752 313.994407 
L 814.752 125.318407 
" style="fill: none; stroke: #dddddd; stroke-width: 0.6; stroke-linejoin: miter; stroke-linecap: square"/>
   </g>
   <g id="patch_33">
    <path d="M 626.076 313.994407 
L 814.752 313.994407 
" style="fill: none; stroke: #dddddd; stroke-width: 0.6; stroke-linejoin: miter; stroke-linecap: square"/>
   </g>
   <g id="patch_34">
    <path d="M 626.076 125.318407 
L 814.752 125.318407 
" style="fill: none; stroke: #dddddd; stroke-width: 0.6; stroke-linejoin: miter; stroke-linecap: square"/>
   </g>
   <g id="text_7">
    <!-- 04_v60 -->
    <g style="fill: #888888" transform="translate(709.577437 335.428372) scale(0.06 -0.06)">
     <defs>
      <path id="DejaVuSansMono-34" d="M 2297 4091 
L 825 1625 
L 2297 1625 
L 2297 4091 
z
M 2194 4666 
L 2925 4666 
L 2925 1625 
L 3547 1625 
L 3547 1113 
L 2925 1113 
L 2925 0 
L 2297 0 
L 2297 1113 
L 319 1113 
L 319 1709 
L 2194 4666 
z
" transform="scale(0.015625)"/>
      <path id="DejaVuSansMono-76" d="M 313 3500 
L 909 3500 
L 1925 563 
L 2944 3500 
L 3541 3500 
L 2297 0 
L 1556 0 
L 313 3500 
z
" transform="scale(0.015625)"/>
      <path id="DejaVuSansMono-36" d="M 3097 4563 
L 3097 3981 
Q 2900 4097 2678 4158 
Q 2456 4219 2216 4219 
Q 1616 4219 1306 3767 
Q 997 3316 997 2438 
Q 1147 2750 1412 2917 
Q 1678 3084 2022 3084 
Q 2697 3084 3067 2670 
Q 3438 2256 3438 1497 
Q 3438 741 3056 325 
Q 2675 -91 1984 -91 
Q 1172 -91 794 492 
Q 416 1075 416 2328 
Q 416 3509 870 4129 
Q 1325 4750 2188 4750 
Q 2419 4750 2650 4701 
Q 2881 4653 3097 4563 
z
M 1972 2591 
Q 1569 2591 1337 2300 
Q 1106 2009 1106 1497 
Q 1106 984 1337 693 
Q 1569 403 1972 403 
Q 2391 403 2603 679 
Q 2816 956 2816 1497 
Q 2816 2041 2603 2316 
Q 2391 2591 1972 2591 
z
" transform="scale(0.015625)"/>
     </defs>
     <use xlink:href="#DejaVuSansMono-30"/>
     <use xlink:href="#DejaVuSansMono-34" transform="translate(60.205078 0)"/>
     <use xlink:href="#DejaVuSansMono-5f" transform="translate(120.410156 0)"/>
     <use xlink:href="#DejaVuSansMono-76" transform="translate(180.615234 0)"/>
     <use xlink:href="#DejaVuSansMono-36" transform="translate(240.820312 0)"/>
     <use xlink:href="#DejaVuSansMono-30" transform="translate(301.025391 0)"/>
    </g>
   </g>
   <g id="text_8">
    <!-- V60 dripper  ★★ -->
    <g style="fill: #1a1a1a" transform="translate(682.960641 119.318407) scale(0.09 -0.09)">
     <defs>
      <path id="DejaVuSans-56" d="M 1831 0 
L 50 4666 
L 709 4666 
L 2188 738 
L 3669 4666 
L 4325 4666 
L 2547 0 
L 1831 0 
z
" transform="scale(0.015625)"/>
      <path id="DejaVuSans-36" d="M 2113 2584 
Q 1688 2584 1439 2293 
Q 1191 2003 1191 1497 
Q 1191 994 1439 701 
Q 1688 409 2113 409 
Q 2538 409 2786 701 
Q 3034 994 3034 1497 
Q 3034 2003 2786 2293 
Q 2538 2584 2113 2584 
z
M 3366 4563 
L 3366 3988 
Q 3128 4100 2886 4159 
Q 2644 4219 2406 4219 
Q 1781 4219 1451 3797 
Q 1122 3375 1075 2522 
Q 1259 2794 1537 2939 
Q 1816 3084 2150 3084 
Q 2853 3084 3261 2657 
Q 3669 2231 3669 1497 
Q 3669 778 3244 343 
Q 2819 -91 2113 -91 
Q 1303 -91 875 529 
Q 447 1150 447 2328 
Q 447 3434 972 4092 
Q 1497 4750 2381 4750 
Q 2619 4750 2861 4703 
Q 3103 4656 3366 4563 
z
" transform="scale(0.015625)"/>
      <path id="DejaVuSans-30" d="M 2034 4250 
Q 1547 4250 1301 3770 
Q 1056 3291 1056 2328 
Q 1056 1369 1301 889 
Q 1547 409 2034 409 
Q 2525 409 2770 889 
Q 3016 1369 3016 2328 
Q 3016 3291 2770 3770 
Q 2525 4250 2034 4250 
z
M 2034 4750 
Q 2819 4750 3233 4129 
Q 3647 3509 3647 2328 
Q 3647 1150 3233 529 
Q 2819 -91 2034 -91 
Q 1250 -91 836 529 
Q 422 1150 422 2328 
Q 422 3509 836 4129 
Q 1250 4750 2034 4750 
z
" transform="scale(0.015625)"/>
      <path id="DejaVuSans-64" d="M 2906 2969 
L 2906 4863 
L 3481 4863 
L 3481 0 
L 2906 0 
L 2906 525 
Q 2725 213 2448 61 
Q 2172 -91 1784 -91 
Q 1150 -91 751 415 
Q 353 922 353 1747 
Q 353 2572 751 3078 
Q 1150 3584 1784 3584 
Q 2172 3584 2448 3432 
Q 2725 3281 2906 2969 
z
M 947 1747 
Q 947 1113 1208 752 
Q 1469 391 1925 391 
Q 2381 391 2643 752 
Q 2906 1113 2906 1747 
Q 2906 2381 2643 2742 
Q 2381 3103 1925 3103 
Q 1469 3103 1208 2742 
Q 947 2381 947 1747 
z
" transform="scale(0.015625)"/>
     </defs>
     <use xlink:href="#DejaVuSans-56"/>
     <use xlink:href="#DejaVuSans-36" transform="translate(68.408203 0)"/>
     <use xlink:href="#DejaVuSans-30" transform="translate(132.03125 0)"/>
     <use xlink:href="#DejaVuSans-20" transform="translate(195.654297 0)"/>
     <use xlink:href="#DejaVuSans-64" transform="translate(227.441406 0)"/>
     <use xlink:href="#DejaVuSans-72" transform="translate(290.917969 0)"/>
     <use xlink:href="#DejaVuSans-69" transform="translate(332.03125 0)"/>
     <use xlink:href="#DejaVuSans-70" transform="translate(359.814453 0)"/>
     <use xlink:href="#DejaVuSans-70" transform="translate(423.291016 0)"/>
     <use xlink:href="#DejaVuSans-65" transform="translate(486.767578 0)"/>
     <use xlink:href="#DejaVuSans-72" transform="translate(548.291016 0)"/>
     <use xlink:href="#DejaVuSans-20" transform="translate(589.404297 0)"/>
     <use xlink:href="#DejaVuSans-20" transform="translate(621.191406 0)"/>
     <use xlink:href="#DejaVuSans-2605" transform="translate(652.978516 0)"/>
     <use xlink:href="#DejaVuSans-2605" transform="translate(742.626953 0)"/>
    </g>
   </g>
  </g>
  <g id="axes_5">
   <g id="patch_35">
    <path d="M 27.648 534.597593 
L 216.324 534.597593 
L 216.324 345.921593 
L 27.648 345.921593 
z
" style="fill: #ffffff"/>
   </g>
   <g id="patch_36">
    <path d="M 121.986 432.712553 
C 125.488622 432.712553 128.848258 429.134136 131.324986 422.765407 
C 133.801713 416.396678 135.19332 407.757616 135.19332 398.750873 
C 135.19332 389.74413 133.801713 381.105068 131.324986 374.736339 
C 128.848258 368.36761 125.488622 364.789193 121.986 364.789193 
C 118.483378 364.789193 115.123742 368.36761 112.647014 374.736339 
C 110.170287 381.105068 108.77868 389.74413 108.77868 398.750873 
C 108.77868 407.757616 110.170287 416.396678 112.647014 422.765407 
C 115.123742 429.134136 118.483378 432.712553 121.986 432.712553 
z
" clip-path="url(#p930f7a471b)" style="stroke: #000000; stroke-linejoin: miter"/>
   </g>
   <g id="patch_37">
    <path d="M 114.808338 437.927429 
C 115.890708 434.596238 113.525616 430.295243 108.233946 425.971689 
C 102.942276 421.648136 95.156069 417.655022 86.590148 414.871785 
C 78.024226 412.088549 69.377959 410.742428 62.555587 411.129891 
C 55.733215 411.517354 51.291754 413.606765 50.209384 416.937957 
C 49.127015 420.269149 51.492107 424.570143 56.783777 428.893697 
C 62.075447 433.217251 69.861654 437.210364 78.427575 439.993601 
C 86.993496 442.776838 95.639763 444.122958 102.462135 443.735495 
C 109.284508 443.348033 113.725969 441.258621 114.808338 437.927429 
z
" clip-path="url(#p930f7a471b)" style="stroke: #000000; stroke-linejoin: miter"/>
   </g>
   <g id="patch_38">
    <path d="M 117.549961 446.365277 
C 114.71628 444.306487 109.894938 445.226743 104.147778 448.923369 
C 98.400618 452.619994 92.196871 458.791177 86.90284 466.077785 
C 81.60881 473.364393 77.656729 481.171507 75.916999 487.779701 
C 74.17727 494.387895 74.791931 499.25764 77.625612 501.316429 
C 80.459293 503.375219 85.280636 502.454963 91.027795 498.758337 
C 96.774955 495.061711 102.978702 488.890529 108.272733 481.603921 
C 113.566763 474.317313 117.518844 466.510199 119.258574 459.902005 
C 120.998304 453.293811 120.383642 448.424066 117.549961 446.365277 
z
" clip-path="url(#p930f7a471b)" style="stroke: #000000; stroke-linejoin: miter"/>
   </g>
   <g id="patch_39">
    <path d="M 126.422039 446.365277 
C 123.588358 448.424066 122.973696 453.293811 124.713426 459.902005 
C 126.453156 466.510199 130.405237 474.317313 135.699267 481.603921 
C 140.993298 488.890529 147.197045 495.061711 152.944205 498.758337 
C 158.691364 502.454963 163.512707 503.375219 166.346388 501.316429 
C 169.180069 499.25764 169.79473 494.387895 168.055001 487.779701 
C 166.315271 481.171507 162.36319 473.364393 157.06916 466.077785 
C 151.775129 458.791177 145.571382 452.619994 139.824222 448.923369 
C 134.077062 445.226743 129.25572 444.306487 126.422039 446.365277 
z
" clip-path="url(#p930f7a471b)" style="stroke: #000000; stroke-linejoin: miter"/>
   </g>
   <g id="patch_40">
    <path d="M 129.163662 437.927429 
C 130.246031 441.258621 134.687492 443.348033 141.509865 443.735495 
C 148.332237 444.122958 156.978504 442.776838 165.544425 439.993601 
C 174.110346 437.210364 181.896553 433.217251 187.188223 428.893697 
C 192.479893 424.570143 194.844985 420.269149 193.762616 416.937957 
C 192.680246 413.606765 188.238785 411.517354 181.416413 411.129891 
C 174.594041 410.742428 165.947774 412.088549 157.381852 414.871785 
C 148.815931 417.655022 141.029724 421.648136 135.738054 425.971689 
C 130.446384 430.295243 128.081292 434.596238 129.163662 437.927429 
z
" clip-path="url(#p930f7a471b)" style="stroke: #000000; stroke-linejoin: miter"/>
   </g>
   <g id="patch_41">
    <path d="M 121.986 453.466913 
C 125.488622 453.466913 128.848258 452.075307 131.324986 449.598579 
C 133.801713 447.121851 135.19332 443.762215 135.19332 440.259593 
C 135.19332 436.756971 133.801713 433.397335 131.324986 430.920608 
C 128.848258 428.44388 125.488622 427.052273 121.986 427.052273 
C 118.483378 427.052273 115.123742 428.44388 112.647014 430.920608 
C 110.170287 433.397335 108.77868 436.756971 108.77868 440.259593 
C 108.77868 443.762215 110.170287 447.121851 112.647014 449.598579 
C 115.123742 452.075307 118.483378 453.466913 121.986 453.466913 
z
" clip-path="url(#p930f7a471b)" style="stroke: #000000; stroke-linejoin: miter"/>
   </g>
   <g id="patch_42">
    <path d="M 121.986 445.919873 
C 123.487124 445.919873 124.926968 445.32347 125.988422 444.262015 
C 127.049877 443.200561 127.64628 441.760717 127.64628 440.259593 
C 127.64628 438.758469 127.049877 437.318626 125.988422 436.257171 
C 124.926968 435.195716 123.487124 434.599313 121.986 434.599313 
C 120.484876 434.599313 119.045032 435.195716 117.983578 436.257171 
C 116.922123 437.318626 116.32572 438.758469 116.32572 440.259593 
C 116.32572 441.760717 116.922123 443.200561 117.983578 444.262015 
C 119.045032 445.32347 120.484876 445.919873 121.986 445.919873 
z
" clip-path="url(#p930f7a471b)" style="fill: #ffffff; stroke: #ffffff; stroke-linejoin: miter"/>
   </g>
   <g id="matplotlib.axis_9"/>
   <g id="matplotlib.axis_10"/>
   <g id="patch_43">
    <path d="M 27.648 534.597593 
L 27.648 345.921593 
" style="fill: none; stroke: #dddddd; stroke-width: 0.6; stroke-linejoin: miter; stroke-linecap: square"/>
   </g>
   <g id="patch_44">
    <path d="M 216.324 534.597593 
L 216.324 345.921593 
" style="fill: none; stroke: #dddddd; stroke-width: 0.6; stroke-linejoin: miter; stroke-linecap: square"/>
   </g>
   <g id="patch_45">
    <path d="M 27.648 534.597593 
L 216.324 534.597593 
" style="fill: none; stroke: #dddddd; stroke-width: 0.6; stroke-linejoin: miter; stroke-linecap: square"/>
   </g>
   <g id="patch_46">
    <path d="M 27.648 345.921593 
L 216.324 345.921593 
" style="fill: none; stroke: #dddddd; stroke-width: 0.6; stroke-linejoin: miter; stroke-linecap: square"/>
   </g>
   <g id="text_9">
    <!-- 05_bloom -->
    <g style="fill: #888888" transform="translate(107.53725 556.169371) scale(0.06 -0.06)">
     <defs>
      <path id="DejaVuSansMono-35" d="M 647 4666 
L 3009 4666 
L 3009 4134 
L 1222 4134 
L 1222 2988 
Q 1356 3038 1492 3061 
Q 1628 3084 1766 3084 
Q 2491 3084 2916 2656 
Q 3341 2228 3341 1497 
Q 3341 759 2895 334 
Q 2450 -91 1678 -91 
Q 1306 -91 998 -41 
Q 691 9 447 109 
L 447 750 
Q 734 594 1025 517 
Q 1316 441 1619 441 
Q 2141 441 2423 716 
Q 2706 991 2706 1497 
Q 2706 1997 2414 2275 
Q 2122 2553 1600 2553 
Q 1347 2553 1106 2495 
Q 866 2438 647 2322 
L 647 4666 
z
" transform="scale(0.015625)"/>
      <path id="DejaVuSansMono-6d" d="M 2113 3144 
Q 2219 3369 2383 3476 
Q 2547 3584 2778 3584 
Q 3200 3584 3373 3257 
Q 3547 2931 3547 2028 
L 3547 0 
L 3022 0 
L 3022 2003 
Q 3022 2744 2939 2923 
Q 2856 3103 2638 3103 
Q 2388 3103 2295 2911 
Q 2203 2719 2203 2003 
L 2203 0 
L 1678 0 
L 1678 2003 
Q 1678 2753 1589 2928 
Q 1500 3103 1269 3103 
Q 1041 3103 952 2911 
Q 863 2719 863 2003 
L 863 0 
L 341 0 
L 341 3500 
L 863 3500 
L 863 3200 
Q 966 3388 1120 3486 
Q 1275 3584 1472 3584 
Q 1709 3584 1867 3475 
Q 2025 3366 2113 3144 
z
" transform="scale(0.015625)"/>
     </defs>
     <use xlink:href="#DejaVuSansMono-30"/>
     <use xlink:href="#DejaVuSansMono-35" transform="translate(60.205078 0)"/>
     <use xlink:href="#DejaVuSansMono-5f" transform="translate(120.410156 0)"/>
     <use xlink:href="#DejaVuSansMono-62" transform="translate(180.615234 0)"/>
     <use xlink:href="#DejaVuSansMono-6c" transform="translate(240.820312 0)"/>
     <use xlink:href="#DejaVuSansMono-6f" transform="translate(301.025391 0)"/>
     <use xlink:href="#DejaVuSansMono-6f" transform="translate(361.230469 0)"/>
     <use xlink:href="#DejaVuSansMono-6d" transform="translate(421.435547 0)"/>
    </g>
   </g>
   <g id="text_10">
    <!-- Coffea arabica bloom  ★★ -->
    <g style="fill: #1a1a1a" transform="translate(62.904516 339.921593) scale(0.09 -0.09)">
     <defs>
      <path id="DejaVuSans-6d" d="M 3328 2828 
Q 3544 3216 3844 3400 
Q 4144 3584 4550 3584 
Q 5097 3584 5394 3201 
Q 5691 2819 5691 2113 
L 5691 0 
L 5113 0 
L 5113 2094 
Q 5113 2597 4934 2840 
Q 4756 3084 4391 3084 
Q 3944 3084 3684 2787 
Q 3425 2491 3425 1978 
L 3425 0 
L 2847 0 
L 2847 2094 
Q 2847 2600 2669 2842 
Q 2491 3084 2119 3084 
Q 1678 3084 1418 2786 
Q 1159 2488 1159 1978 
L 1159 0 
L 581 0 
L 581 3500 
L 1159 3500 
L 1159 2956 
Q 1356 3278 1631 3431 
Q 1906 3584 2284 3584 
Q 2666 3584 2933 3390 
Q 3200 3197 3328 2828 
z
" transform="scale(0.015625)"/>
     </defs>
     <use xlink:href="#DejaVuSans-43"/>
     <use xlink:href="#DejaVuSans-6f" transform="translate(69.824219 0)"/>
     <use xlink:href="#DejaVuSans-66" transform="translate(131.005859 0)"/>
     <use xlink:href="#DejaVuSans-66" transform="translate(166.210938 0)"/>
     <use xlink:href="#DejaVuSans-65" transform="translate(201.416016 0)"/>
     <use xlink:href="#DejaVuSans-61" transform="translate(262.939453 0)"/>
     <use xlink:href="#DejaVuSans-20" transform="translate(324.21875 0)"/>
     <use xlink:href="#DejaVuSans-61" transform="translate(356.005859 0)"/>
     <use xlink:href="#DejaVuSans-72" transform="translate(417.285156 0)"/>
     <use xlink:href="#DejaVuSans-61" transform="translate(458.398438 0)"/>
     <use xlink:href="#DejaVuSans-62" transform="translate(519.677734 0)"/>
     <use xlink:href="#DejaVuSans-69" transform="translate(583.154297 0)"/>
     <use xlink:href="#DejaVuSans-63" transform="translate(610.9375 0)"/>
     <use xlink:href="#DejaVuSans-61" transform="translate(665.917969 0)"/>
     <use xlink:href="#DejaVuSans-20" transform="translate(727.197266 0)"/>
     <use xlink:href="#DejaVuSans-62" transform="translate(758.984375 0)"/>
     <use xlink:href="#DejaVuSans-6c" transform="translate(822.460938 0)"/>
     <use xlink:href="#DejaVuSans-6f" transform="translate(850.244141 0)"/>
     <use xlink:href="#DejaVuSans-6f" transform="translate(911.425781 0)"/>
     <use xlink:href="#DejaVuSans-6d" transform="translate(972.607422 0)"/>
     <use xlink:href="#DejaVuSans-20" transform="translate(1070.019531 0)"/>
     <use xlink:href="#DejaVuSans-20" transform="translate(1101.806641 0)"/>
     <use xlink:href="#DejaVuSans-2605" transform="translate(1133.59375 0)"/>
     <use xlink:href="#DejaVuSans-2605" transform="translate(1223.242188 0)"/>
    </g>
   </g>
  </g>
  <g id="axes_6">
   <g id="patch_47">
    <path d="M 227.124 534.597593 
L 415.8 534.597593 
L 415.8 345.921593 
L 227.124 345.921593 
z
" style="fill: #ffffff"/>
   </g>
   <g id="patch_48">
    <path d="M 321.462 353.468633 
C 374.29128 387.430313 374.29128 440.259593 321.462 527.050553 
C 268.63272 440.259593 268.63272 387.430313 321.462 353.468633 
" clip-path="url(#pa451d093d3)" style="stroke: #000000; stroke-linejoin: miter"/>
   </g>
   <g id="patch_49">
    <path d="M 321.462 361.015673 
L 321.462 519.503513 
" clip-path="url(#pa451d093d3)" style="fill: none; stroke: #ffffff; stroke-width: 2.2; stroke-linejoin: miter"/>
   </g>
   <g id="patch_50">
    <path d="M 321.462 402.524393 
Q 308.25468 410.071433 295.04736 417.618473 
" clip-path="url(#pa451d093d3)" style="fill: none; stroke: #ffffff; stroke-width: 1.4; stroke-linejoin: miter"/>
   </g>
   <g id="patch_51">
    <path d="M 321.462 402.524393 
Q 334.66932 410.071433 347.87664 417.618473 
" clip-path="url(#pa451d093d3)" style="fill: none; stroke: #ffffff; stroke-width: 1.4; stroke-linejoin: miter"/>
   </g>
   <g id="patch_52">
    <path d="M 321.462 440.259593 
Q 304.48116 447.806633 287.50032 455.353673 
" clip-path="url(#pa451d093d3)" style="fill: none; stroke: #ffffff; stroke-width: 1.4; stroke-linejoin: miter"/>
   </g>
   <g id="patch_53">
    <path d="M 321.462 440.259593 
Q 338.44284 447.806633 355.42368 455.353673 
" clip-path="url(#pa451d093d3)" style="fill: none; stroke: #ffffff; stroke-width: 1.4; stroke-linejoin: miter"/>
   </g>
   <g id="patch_54">
    <path d="M 321.462 477.994793 
Q 308.25468 485.541833 295.04736 493.088873 
" clip-path="url(#pa451d093d3)" style="fill: none; stroke: #ffffff; stroke-width: 1.4; stroke-linejoin: miter"/>
   </g>
   <g id="patch_55">
    <path d="M 321.462 477.994793 
Q 334.66932 485.541833 347.87664 493.088873 
" clip-path="url(#pa451d093d3)" style="fill: none; stroke: #ffffff; stroke-width: 1.4; stroke-linejoin: miter"/>
   </g>
   <g id="matplotlib.axis_11"/>
   <g id="matplotlib.axis_12"/>
   <g id="patch_56">
    <path d="M 227.124 534.597593 
L 227.124 345.921593 
" style="fill: none; stroke: #dddddd; stroke-width: 0.6; stroke-linejoin: miter; stroke-linecap: square"/>
   </g>
   <g id="patch_57">
    <path d="M 415.8 534.597593 
L 415.8 345.921593 
" style="fill: none; stroke: #dddddd; stroke-width: 0.6; stroke-linejoin: miter; stroke-linecap: square"/>
   </g>
   <g id="patch_58">
    <path d="M 227.124 534.597593 
L 415.8 534.597593 
" style="fill: none; stroke: #dddddd; stroke-width: 0.6; stroke-linejoin: miter; stroke-linecap: square"/>
   </g>
   <g id="patch_59">
    <path d="M 227.124 345.921593 
L 415.8 345.921593 
" style="fill: none; stroke: #dddddd; stroke-width: 0.6; stroke-linejoin: miter; stroke-linecap: square"/>
   </g>
   <g id="text_11">
    <!-- 06_leaf -->
    <g style="fill: #888888" transform="translate(308.819344 556.169371) scale(0.06 -0.06)">
     <defs>
      <path id="DejaVuSansMono-66" d="M 3322 4863 
L 3322 4384 
L 2669 4384 
Q 2359 4384 2239 4257 
Q 2119 4131 2119 3809 
L 2119 3500 
L 3322 3500 
L 3322 3053 
L 2119 3053 
L 2119 0 
L 1544 0 
L 1544 3053 
L 609 3053 
L 609 3500 
L 1544 3500 
L 1544 3744 
Q 1544 4319 1808 4591 
Q 2072 4863 2631 4863 
L 3322 4863 
z
" transform="scale(0.015625)"/>
     </defs>
     <use xlink:href="#DejaVuSansMono-30"/>
     <use xlink:href="#DejaVuSansMono-36" transform="translate(60.205078 0)"/>
     <use xlink:href="#DejaVuSansMono-5f" transform="translate(120.410156 0)"/>
     <use xlink:href="#DejaVuSansMono-6c" transform="translate(180.615234 0)"/>
     <use xlink:href="#DejaVuSansMono-65" transform="translate(240.820312 0)"/>
     <use xlink:href="#DejaVuSansMono-61" transform="translate(301.025391 0)"/>
     <use xlink:href="#DejaVuSansMono-66" transform="translate(361.230469 0)"/>
    </g>
   </g>
   <g id="text_12">
    <!-- Coffee leaf  ★★ -->
    <g style="fill: #1a1a1a" transform="translate(286.139813 339.921593) scale(0.09 -0.09)">
     <use xlink:href="#DejaVuSans-43"/>
     <use xlink:href="#DejaVuSans-6f" transform="translate(69.824219 0)"/>
     <use xlink:href="#DejaVuSans-66" transform="translate(131.005859 0)"/>
     <use xlink:href="#DejaVuSans-66" transform="translate(166.210938 0)"/>
     <use xlink:href="#DejaVuSans-65" transform="translate(201.416016 0)"/>
     <use xlink:href="#DejaVuSans-65" transform="translate(262.939453 0)"/>
     <use xlink:href="#DejaVuSans-20" transform="translate(324.462891 0)"/>
     <use xlink:href="#DejaVuSans-6c" transform="translate(356.25 0)"/>
     <use xlink:href="#DejaVuSans-65" transform="translate(384.033203 0)"/>
     <use xlink:href="#DejaVuSans-61" transform="translate(445.556641 0)"/>
     <use xlink:href="#DejaVuSans-66" transform="translate(506.835938 0)"/>
     <use xlink:href="#DejaVuSans-20" transform="translate(542.041016 0)"/>
     <use xlink:href="#DejaVuSans-20" transform="translate(573.828125 0)"/>
     <use xlink:href="#DejaVuSans-2605" transform="translate(605.615234 0)"/>
     <use xlink:href="#DejaVuSans-2605" transform="translate(695.263672 0)"/>
    </g>
   </g>
  </g>
  <g id="axes_7">
   <g id="patch_60">
    <path d="M 426.6 534.597593 
L 615.276 534.597593 
L 615.276 345.921593 
L 426.6 345.921593 
z
" style="fill: #ffffff"/>
   </g>
   <g id="patch_61">
    <path d="M 483.2028 406.297913 
L 558.6732 406.297913 
L 551.12616 474.221273 
L 490.74984 474.221273 
z
" clip-path="url(#p0298f449ae)" style="stroke: #000000; stroke-linejoin: miter"/>
   </g>
   <g id="patch_62">
    <path d="M 566.389803 460.698648 
C 569.374284 461.224892 572.438125 461.091122 575.365384 460.306765 
C 578.292642 459.522409 581.012892 458.106337 583.334405 456.158355 
C 585.655919 454.210374 587.522845 451.77735 588.803598 449.030765 
C 590.084352 446.28418 590.74812 443.290114 590.74812 440.259593 
C 590.74812 437.229072 590.084352 434.235006 588.803598 431.488422 
C 587.522845 428.741837 585.655919 426.308812 583.334405 424.360831 
C 581.012892 422.412849 578.292642 420.996777 575.365384 420.212421 
C 572.438125 419.428064 569.374284 419.294294 566.389803 419.820538 
L 568.191782 430.040066 
C 569.684022 429.776944 571.215943 429.843829 572.679572 430.236007 
C 574.143201 430.628185 575.503326 431.336221 576.664083 432.310212 
C 577.82484 433.284203 578.758302 434.500715 579.398679 435.874007 
C 580.039056 437.2473 580.37094 438.744333 580.37094 440.259593 
C 580.37094 441.774854 580.039056 443.271886 579.398679 444.645179 
C 578.758302 446.018471 577.82484 447.234983 576.664083 448.208974 
C 575.503326 449.182965 574.143201 449.891001 572.679572 450.283179 
C 571.215943 450.675358 569.684022 450.742243 568.191782 450.47912 
z
" clip-path="url(#p0298f449ae)" style="stroke: #000000; stroke-linejoin: miter"/>
   </g>
   <g id="patch_63">
    <path d="M 462.44844 493.088873 
L 579.42756 493.088873 
Q 585.08784 493.088873 585.08784 487.428593 
L 585.08784 485.541833 
Q 585.08784 479.881553 579.42756 479.881553 
L 462.44844 479.881553 
Q 456.78816 479.881553 456.78816 485.541833 
L 456.78816 487.428593 
Q 456.78816 493.088873 462.44844 493.088873 
z
" clip-path="url(#p0298f449ae)" style="stroke: #000000; stroke-linejoin: miter"/>
   </g>
   <g id="patch_64">
    <path d="M 502.0704 391.203833 
C 494.52336 376.109753 509.61744 368.562713 502.0704 355.355393 
" clip-path="url(#p0298f449ae)" style="fill: none; stroke: #000000; stroke-width: 2.4; stroke-linejoin: miter; stroke-linecap: round"/>
   </g>
   <g id="patch_65">
    <path d="M 520.938 391.203833 
C 515.27772 376.109753 526.59828 368.562713 520.938 355.355393 
" clip-path="url(#p0298f449ae)" style="fill: none; stroke: #000000; stroke-width: 2.4; stroke-linejoin: miter; stroke-linecap: round"/>
   </g>
   <g id="patch_66">
    <path d="M 539.8056 391.203833 
C 536.03208 376.109753 543.57912 368.562713 539.8056 355.355393 
" clip-path="url(#p0298f449ae)" style="fill: none; stroke: #000000; stroke-width: 2.4; stroke-linejoin: miter; stroke-linecap: round"/>
   </g>
   <g id="matplotlib.axis_13"/>
   <g id="matplotlib.axis_14"/>
   <g id="patch_67">
    <path d="M 426.6 534.597593 
L 426.6 345.921593 
" style="fill: none; stroke: #dddddd; stroke-width: 0.6; stroke-linejoin: miter; stroke-linecap: square"/>
   </g>
   <g id="patch_68">
    <path d="M 615.276 534.597593 
L 615.276 345.921593 
" style="fill: none; stroke: #dddddd; stroke-width: 0.6; stroke-linejoin: miter; stroke-linecap: square"/>
   </g>
   <g id="patch_69">
    <path d="M 426.6 534.597593 
L 615.276 534.597593 
" style="fill: none; stroke: #dddddd; stroke-width: 0.6; stroke-linejoin: miter; stroke-linecap: square"/>
   </g>
   <g id="patch_70">
    <path d="M 426.6 345.921593 
L 615.276 345.921593 
" style="fill: none; stroke: #dddddd; stroke-width: 0.6; stroke-linejoin: miter; stroke-linecap: square"/>
   </g>
   <g id="text_13">
    <!-- 07_espresso -->
    <g style="fill: #888888" transform="translate(501.070969 556.031558) scale(0.06 -0.06)">
     <defs>
      <path id="DejaVuSansMono-37" d="M 434 4666 
L 3372 4666 
L 3372 4397 
L 1703 0 
L 1044 0 
L 2669 4134 
L 434 4134 
L 434 4666 
z
" transform="scale(0.015625)"/>
      <path id="DejaVuSansMono-70" d="M 1172 441 
L 1172 -1331 
L 594 -1331 
L 594 3500 
L 1172 3500 
L 1172 3053 
Q 1316 3313 1555 3448 
Q 1794 3584 2106 3584 
Q 2741 3584 3102 3093 
Q 3463 2603 3463 1734 
Q 3463 881 3100 395 
Q 2738 -91 2106 -91 
Q 1788 -91 1548 45 
Q 1309 181 1172 441 
z
M 2859 1747 
Q 2859 2416 2648 2756 
Q 2438 3097 2022 3097 
Q 1603 3097 1387 2755 
Q 1172 2413 1172 1747 
Q 1172 1084 1387 740 
Q 1603 397 2022 397 
Q 2438 397 2648 737 
Q 2859 1078 2859 1747 
z
" transform="scale(0.015625)"/>
     </defs>
     <use xlink:href="#DejaVuSansMono-30"/>
     <use xlink:href="#DejaVuSansMono-37" transform="translate(60.205078 0)"/>
     <use xlink:href="#DejaVuSansMono-5f" transform="translate(120.410156 0)"/>
     <use xlink:href="#DejaVuSansMono-65" transform="translate(180.615234 0)"/>
     <use xlink:href="#DejaVuSansMono-73" transform="translate(240.820312 0)"/>
     <use xlink:href="#DejaVuSansMono-70" transform="translate(301.025391 0)"/>
     <use xlink:href="#DejaVuSansMono-72" transform="translate(361.230469 0)"/>
     <use xlink:href="#DejaVuSansMono-65" transform="translate(421.435547 0)"/>
     <use xlink:href="#DejaVuSansMono-73" transform="translate(481.640625 0)"/>
     <use xlink:href="#DejaVuSansMono-73" transform="translate(541.845703 0)"/>
     <use xlink:href="#DejaVuSansMono-6f" transform="translate(602.050781 0)"/>
    </g>
   </g>
   <g id="text_14">
    <!-- Espresso cup  ★★★ -->
    <g style="fill: #1a1a1a" transform="translate(476.357062 339.921593) scale(0.09 -0.09)">
     <defs>
      <path id="DejaVuSans-45" d="M 628 4666 
L 3578 4666 
L 3578 4134 
L 1259 4134 
L 1259 2753 
L 3481 2753 
L 3481 2222 
L 1259 2222 
L 1259 531 
L 3634 531 
L 3634 0 
L 628 0 
L 628 4666 
z
" transform="scale(0.015625)"/>
     </defs>
     <use xlink:href="#DejaVuSans-45"/>
     <use xlink:href="#DejaVuSans-73" transform="translate(63.183594 0)"/>
     <use xlink:href="#DejaVuSans-70" transform="translate(115.283203 0)"/>
     <use xlink:href="#DejaVuSans-72" transform="translate(178.759766 0)"/>
     <use xlink:href="#DejaVuSans-65" transform="translate(217.623047 0)"/>
     <use xlink:href="#DejaVuSans-73" transform="translate(279.146484 0)"/>
     <use xlink:href="#DejaVuSans-73" transform="translate(331.246094 0)"/>
     <use xlink:href="#DejaVuSans-6f" transform="translate(383.345703 0)"/>
     <use xlink:href="#DejaVuSans-20" transform="translate(444.527344 0)"/>
     <use xlink:href="#DejaVuSans-63" transform="translate(476.314453 0)"/>
     <use xlink:href="#DejaVuSans-75" transform="translate(531.294922 0)"/>
     <use xlink:href="#DejaVuSans-70" transform="translate(594.673828 0)"/>
     <use xlink:href="#DejaVuSans-20" transform="translate(658.150391 0)"/>
     <use xlink:href="#DejaVuSans-20" transform="translate(689.9375 0)"/>
     <use xlink:href="#DejaVuSans-2605" transform="translate(721.724609 0)"/>
     <use xlink:href="#DejaVuSans-2605" transform="translate(811.373047 0)"/>
     <use xlink:href="#DejaVuSans-2605" transform="translate(901.021484 0)"/>
    </g>
   </g>
  </g>
  <g id="axes_8">
   <g id="patch_71">
    <path d="M 626.076 534.597593 
L 814.752 534.597593 
L 814.752 345.921593 
L 626.076 345.921593 
z
" style="fill: #ffffff"/>
   </g>
   <g id="patch_72">
    <path d="M 686.45232 500.635913 
L 750.60216 500.635913 
Q 758.1492 500.635913 758.1492 493.088873 
L 758.1492 413.844953 
Q 758.1492 406.297913 750.60216 406.297913 
L 686.45232 406.297913 
Q 678.90528 406.297913 678.90528 413.844953 
L 678.90528 493.088873 
Q 678.90528 500.635913 686.45232 500.635913 
z
" clip-path="url(#p733e8713e5)" style="stroke: #000000; stroke-linejoin: miter"/>
   </g>
   <g id="patch_73">
    <path d="M 675.13176 508.182953 
L 761.92272 508.182953 
Q 765.69624 508.182953 765.69624 504.409433 
L 765.69624 498.749153 
Q 765.69624 494.975633 761.92272 494.975633 
L 675.13176 494.975633 
Q 671.35824 494.975633 671.35824 498.749153 
L 671.35824 504.409433 
Q 671.35824 508.182953 675.13176 508.182953 
z
" clip-path="url(#p733e8713e5)" style="stroke: #000000; stroke-linejoin: miter"/>
   </g>
   <g id="patch_74">
    <path d="M 697.77288 406.297913 
L 739.2816 406.297913 
Q 743.05512 406.297913 743.05512 402.524393 
L 743.05512 398.750873 
Q 743.05512 394.977353 739.2816 394.977353 
L 697.77288 394.977353 
Q 693.99936 394.977353 693.99936 398.750873 
L 693.99936 402.524393 
Q 693.99936 406.297913 697.77288 406.297913 
z
" clip-path="url(#p733e8713e5)" style="stroke: #000000; stroke-linejoin: miter"/>
   </g>
   <g id="patch_75">
    <path d="M 718.52724 396.864113 
C 720.028364 396.864113 721.468208 396.26771 722.529662 395.206255 
C 723.591117 394.144801 724.18752 392.704957 724.18752 391.203833 
C 724.18752 389.702709 723.591117 388.262866 722.529662 387.201411 
C 721.468208 386.139956 720.028364 385.543553 718.52724 385.543553 
C 717.026116 385.543553 715.586272 386.139956 714.524818 387.201411 
C 713.463363 388.262866 712.86696 389.702709 712.86696 391.203833 
C 712.86696 392.704957 713.463363 394.144801 714.524818 395.206255 
C 715.586272 396.26771 717.026116 396.864113 718.52724 396.864113 
z
" clip-path="url(#p733e8713e5)" style="stroke: #000000; stroke-linejoin: miter"/>
   </g>
   <g id="patch_76">
    <path d="M 678.90528 421.391993 
C 644.9436 421.391993 641.17008 387.430313 648.71712 368.562713 
M 648.71712 368.562713 
L 656.26416 368.562713 
" clip-path="url(#p733e8713e5)" style="fill: none; stroke: #000000; stroke-width: 6.5; stroke-linecap: round"/>
   </g>
   <g id="patch_77">
    <path d="M 775.381026 474.127937 
C 781.490949 473.593388 787.183558 470.786104 791.32713 466.264189 
C 795.470702 461.742273 797.77116 455.826655 797.77116 449.693393 
C 797.77116 443.560131 795.470702 437.644513 791.32713 433.122598 
C 787.183558 428.600682 781.490949 425.793398 775.381026 425.258849 
L 774.558816 434.656751 
C 778.318769 434.985704 781.821913 436.713263 784.371803 439.49598 
C 786.921694 442.278698 788.33736 445.919078 788.33736 449.693393 
C 788.33736 453.467708 786.921694 457.108089 784.371803 459.890806 
C 781.821913 462.673523 778.318769 464.401082 774.558816 464.730036 
z
" clip-path="url(#p733e8713e5)" style="stroke: #000000; stroke-linejoin: miter"/>
   </g>
   <g id="matplotlib.axis_15"/>
   <g id="matplotlib.axis_16"/>
   <g id="patch_78">
    <path d="M 626.076 534.597593 
L 626.076 345.921593 
" style="fill: none; stroke: #dddddd; stroke-width: 0.6; stroke-linejoin: miter; stroke-linecap: square"/>
   </g>
   <g id="patch_79">
    <path d="M 814.752 534.597593 
L 814.752 345.921593 
" style="fill: none; stroke: #dddddd; stroke-width: 0.6; stroke-linejoin: miter; stroke-linecap: square"/>
   </g>
   <g id="patch_80">
    <path d="M 626.076 534.597593 
L 814.752 534.597593 
" style="fill: none; stroke: #dddddd; stroke-width: 0.6; stroke-linejoin: miter; stroke-linecap: square"/>
   </g>
   <g id="patch_81">
    <path d="M 626.076 345.921593 
L 814.752 345.921593 
" style="fill: none; stroke: #dddddd; stroke-width: 0.6; stroke-linejoin: miter; stroke-linecap: square"/>
   </g>
   <g id="text_15">
    <!-- 08_kettle -->
    <g style="fill: #888888" transform="translate(704.159156 556.169371) scale(0.06 -0.06)">
     <defs>
      <path id="DejaVuSansMono-38" d="M 1925 2216 
Q 1503 2216 1273 1980 
Q 1044 1744 1044 1313 
Q 1044 881 1276 642 
Q 1509 403 1925 403 
Q 2350 403 2579 639 
Q 2809 875 2809 1313 
Q 2809 1741 2576 1978 
Q 2344 2216 1925 2216 
z
M 1375 2478 
Q 972 2581 745 2862 
Q 519 3144 519 3541 
Q 519 4097 897 4423 
Q 1275 4750 1925 4750 
Q 2578 4750 2956 4423 
Q 3334 4097 3334 3541 
Q 3334 3144 3107 2862 
Q 2881 2581 2478 2478 
Q 2947 2375 3195 2062 
Q 3444 1750 3444 1253 
Q 3444 622 3041 265 
Q 2638 -91 1925 -91 
Q 1213 -91 811 264 
Q 409 619 409 1247 
Q 409 1747 657 2061 
Q 906 2375 1375 2478 
z
M 1147 3481 
Q 1147 3106 1347 2909 
Q 1547 2713 1925 2713 
Q 2306 2713 2506 2909 
Q 2706 3106 2706 3481 
Q 2706 3863 2507 4063 
Q 2309 4263 1925 4263 
Q 1547 4263 1347 4061 
Q 1147 3859 1147 3481 
z
" transform="scale(0.015625)"/>
      <path id="DejaVuSansMono-6b" d="M 738 4863 
L 1331 4863 
L 1331 2047 
L 2841 3500 
L 3541 3500 
L 2163 2181 
L 3756 0 
L 3053 0 
L 1759 1806 
L 1331 1403 
L 1331 0 
L 738 0 
L 738 4863 
z
" transform="scale(0.015625)"/>
      <path id="DejaVuSansMono-74" d="M 1919 4494 
L 1919 3500 
L 3225 3500 
L 3225 3053 
L 1919 3053 
L 1919 1153 
Q 1919 766 2066 612 
Q 2213 459 2578 459 
L 3225 459 
L 3225 0 
L 2522 0 
Q 1875 0 1609 259 
Q 1344 519 1344 1153 
L 1344 3053 
L 409 3053 
L 409 3500 
L 1344 3500 
L 1344 4494 
L 1919 4494 
z
" transform="scale(0.015625)"/>
     </defs>
     <use xlink:href="#DejaVuSansMono-30"/>
     <use xlink:href="#DejaVuSansMono-38" transform="translate(60.205078 0)"/>
     <use xlink:href="#DejaVuSansMono-5f" transform="translate(120.410156 0)"/>
     <use xlink:href="#DejaVuSansMono-6b" transform="translate(180.615234 0)"/>
     <use xlink:href="#DejaVuSansMono-65" transform="translate(240.820312 0)"/>
     <use xlink:href="#DejaVuSansMono-74" transform="translate(301.025391 0)"/>
     <use xlink:href="#DejaVuSansMono-74" transform="translate(361.230469 0)"/>
     <use xlink:href="#DejaVuSansMono-6c" transform="translate(421.435547 0)"/>
     <use xlink:href="#DejaVuSansMono-65" transform="translate(481.640625 0)"/>
    </g>
   </g>
   <g id="text_16">
    <!-- Pour-over kettle  ★★★ -->
    <g style="fill: #1a1a1a" transform="translate(669.798844 339.921593) scale(0.09 -0.09)">
     <defs>
      <path id="DejaVuSans-50" d="M 1259 4147 
L 1259 2394 
L 2053 2394 
Q 2494 2394 2734 2622 
Q 2975 2850 2975 3272 
Q 2975 3691 2734 3919 
Q 2494 4147 2053 4147 
L 1259 4147 
z
M 628 4666 
L 2053 4666 
Q 2838 4666 3239 4311 
Q 3641 3956 3641 3272 
Q 3641 2581 3239 2228 
Q 2838 1875 2053 1875 
L 1259 1875 
L 1259 0 
L 628 0 
L 628 4666 
z
" transform="scale(0.015625)"/>
      <path id="DejaVuSans-2d" d="M 313 2009 
L 1997 2009 
L 1997 1497 
L 313 1497 
L 313 2009 
z
" transform="scale(0.015625)"/>
      <path id="DejaVuSans-76" d="M 191 3500 
L 800 3500 
L 1894 563 
L 2988 3500 
L 3597 3500 
L 2284 0 
L 1503 0 
L 191 3500 
z
" transform="scale(0.015625)"/>
      <path id="DejaVuSans-6b" d="M 581 4863 
L 1159 4863 
L 1159 1991 
L 2875 3500 
L 3609 3500 
L 1753 1863 
L 3688 0 
L 2938 0 
L 1159 1709 
L 1159 0 
L 581 0 
L 581 4863 
z
" transform="scale(0.015625)"/>
      <path id="DejaVuSans-74" d="M 1172 4494 
L 1172 3500 
L 2356 3500 
L 2356 3053 
L 1172 3053 
L 1172 1153 
Q 1172 725 1289 603 
Q 1406 481 1766 481 
L 2356 481 
L 2356 0 
L 1766 0 
Q 1100 0 847 248 
Q 594 497 594 1153 
L 594 3053 
L 172 3053 
L 172 3500 
L 594 3500 
L 594 4494 
L 1172 4494 
z
" transform="scale(0.015625)"/>
     </defs>
     <use xlink:href="#DejaVuSans-50"/>
     <use xlink:href="#DejaVuSans-6f" transform="translate(56.677734 0)"/>
     <use xlink:href="#DejaVuSans-75" transform="translate(117.859375 0)"/>
     <use xlink:href="#DejaVuSans-72" transform="translate(181.238281 0)"/>
     <use xlink:href="#DejaVuSans-2d" transform="translate(215.976562 0)"/>
     <use xlink:href="#DejaVuSans-6f" transform="translate(253.935547 0)"/>
     <use xlink:href="#DejaVuSans-76" transform="translate(315.117188 0)"/>
     <use xlink:href="#DejaVuSans-65" transform="translate(374.296875 0)"/>
     <use xlink:href="#DejaVuSans-72" transform="translate(435.820312 0)"/>
     <use xlink:href="#DejaVuSans-20" transform="translate(476.933594 0)"/>
     <use xlink:href="#DejaVuSans-6b" transform="translate(508.720703 0)"/>
     <use xlink:href="#DejaVuSans-65" transform="translate(563.005859 0)"/>
     <use xlink:href="#DejaVuSans-74" transform="translate(624.529297 0)"/>
     <use xlink:href="#DejaVuSans-74" transform="translate(663.738281 0)"/>
     <use xlink:href="#DejaVuSans-6c" transform="translate(702.947266 0)"/>
     <use xlink:href="#DejaVuSans-65" transform="translate(730.730469 0)"/>
     <use xlink:href="#DejaVuSans-20" transform="translate(792.253906 0)"/>
     <use xlink:href="#DejaVuSans-20" transform="translate(824.041016 0)"/>
     <use xlink:href="#DejaVuSans-2605" transform="translate(855.828125 0)"/>
     <use xlink:href="#DejaVuSans-2605" transform="translate(945.476562 0)"/>
     <use xlink:href="#DejaVuSans-2605" transform="translate(1035.125 0)"/>
    </g>
   </g>
  </g>
  <g id="text_17">
   <!-- SENZU COFFEE STAMP LIBRARY -->
   <g style="fill: #1a1a1a" transform="translate(279.44375 30.0855) scale(0.16 -0.16)">
    <defs>
     <path id="DejaVuSans-Bold-53" d="M 3834 4519 
L 3834 3531 
Q 3450 3703 3084 3790 
Q 2719 3878 2394 3878 
Q 1963 3878 1756 3759 
Q 1550 3641 1550 3391 
Q 1550 3203 1689 3098 
Q 1828 2994 2194 2919 
L 2706 2816 
Q 3484 2659 3812 2340 
Q 4141 2022 4141 1434 
Q 4141 663 3683 286 
Q 3225 -91 2284 -91 
Q 1841 -91 1394 -6 
Q 947 78 500 244 
L 500 1259 
Q 947 1022 1364 901 
Q 1781 781 2169 781 
Q 2563 781 2772 912 
Q 2981 1044 2981 1288 
Q 2981 1506 2839 1625 
Q 2697 1744 2272 1838 
L 1806 1941 
Q 1106 2091 782 2419 
Q 459 2747 459 3303 
Q 459 4000 909 4375 
Q 1359 4750 2203 4750 
Q 2588 4750 2994 4692 
Q 3400 4634 3834 4519 
z
" transform="scale(0.015625)"/>
     <path id="DejaVuSans-Bold-45" d="M 588 4666 
L 3834 4666 
L 3834 3756 
L 1791 3756 
L 1791 2888 
L 3713 2888 
L 3713 1978 
L 1791 1978 
L 1791 909 
L 3903 909 
L 3903 0 
L 588 0 
L 588 4666 
z
" transform="scale(0.015625)"/>
     <path id="DejaVuSans-Bold-4e" d="M 588 4666 
L 1931 4666 
L 3628 1466 
L 3628 4666 
L 4769 4666 
L 4769 0 
L 3425 0 
L 1728 3200 
L 1728 0 
L 588 0 
L 588 4666 
z
" transform="scale(0.015625)"/>
     <path id="DejaVuSans-Bold-5a" d="M 359 4666 
L 4281 4666 
L 4281 3938 
L 1778 909 
L 4353 909 
L 4353 0 
L 288 0 
L 288 728 
L 2791 3756 
L 359 3756 
L 359 4666 
z
" transform="scale(0.015625)"/>
     <path id="DejaVuSans-Bold-55" d="M 588 4666 
L 1791 4666 
L 1791 1869 
Q 1791 1291 1980 1042 
Q 2169 794 2597 794 
Q 3028 794 3217 1042 
Q 3406 1291 3406 1869 
L 3406 4666 
L 4609 4666 
L 4609 1869 
Q 4609 878 4112 393 
Q 3616 -91 2597 -91 
Q 1581 -91 1084 393 
Q 588 878 588 1869 
L 588 4666 
z
" transform="scale(0.015625)"/>
     <path id="DejaVuSans-Bold-20" transform="scale(0.015625)"/>
     <path id="DejaVuSans-Bold-43" d="M 4288 256 
Q 3956 84 3597 -3 
Q 3238 -91 2847 -91 
Q 1681 -91 1000 561 
Q 319 1213 319 2328 
Q 319 3447 1000 4098 
Q 1681 4750 2847 4750 
Q 3238 4750 3597 4662 
Q 3956 4575 4288 4403 
L 4288 3438 
Q 3953 3666 3628 3772 
Q 3303 3878 2944 3878 
Q 2300 3878 1931 3465 
Q 1563 3053 1563 2328 
Q 1563 1606 1931 1193 
Q 2300 781 2944 781 
Q 3303 781 3628 887 
Q 3953 994 4288 1222 
L 4288 256 
z
" transform="scale(0.015625)"/>
     <path id="DejaVuSans-Bold-4f" d="M 2719 3878 
Q 2169 3878 1866 3472 
Q 1563 3066 1563 2328 
Q 1563 1594 1866 1187 
Q 2169 781 2719 781 
Q 3272 781 3575 1187 
Q 3878 1594 3878 2328 
Q 3878 3066 3575 3472 
Q 3272 3878 2719 3878 
z
M 2719 4750 
Q 3844 4750 4481 4106 
Q 5119 3463 5119 2328 
Q 5119 1197 4481 553 
Q 3844 -91 2719 -91 
Q 1597 -91 958 553 
Q 319 1197 319 2328 
Q 319 3463 958 4106 
Q 1597 4750 2719 4750 
z
" transform="scale(0.015625)"/>
     <path id="DejaVuSans-Bold-46" d="M 588 4666 
L 3834 4666 
L 3834 3756 
L 1791 3756 
L 1791 2888 
L 3713 2888 
L 3713 1978 
L 1791 1978 
L 1791 0 
L 588 0 
L 588 4666 
z
" transform="scale(0.015625)"/>
     <path id="DejaVuSans-Bold-54" d="M 31 4666 
L 4331 4666 
L 4331 3756 
L 2784 3756 
L 2784 0 
L 1581 0 
L 1581 3756 
L 31 3756 
L 31 4666 
z
" transform="scale(0.015625)"/>
     <path id="DejaVuSans-Bold-41" d="M 3419 850 
L 1538 850 
L 1241 0 
L 31 0 
L 1759 4666 
L 3194 4666 
L 4922 0 
L 3713 0 
L 3419 850 
z
M 1838 1716 
L 3116 1716 
L 2478 3572 
L 1838 1716 
z
" transform="scale(0.015625)"/>
     <path id="DejaVuSans-Bold-4d" d="M 588 4666 
L 2119 4666 
L 3181 2169 
L 4250 4666 
L 5778 4666 
L 5778 0 
L 4641 0 
L 4641 3413 
L 3566 897 
L 2803 897 
L 1728 3413 
L 1728 0 
L 588 0 
L 588 4666 
z
" transform="scale(0.015625)"/>
     <path id="DejaVuSans-Bold-50" d="M 588 4666 
L 2584 4666 
Q 3475 4666 3951 4270 
Q 4428 3875 4428 3144 
Q 4428 2409 3951 2014 
Q 3475 1619 2584 1619 
L 1791 1619 
L 1791 0 
L 588 0 
L 588 4666 
z
M 1791 3794 
L 1791 2491 
L 2456 2491 
Q 2806 2491 2997 2661 
Q 3188 2831 3188 3144 
Q 3188 3456 2997 3625 
Q 2806 3794 2456 3794 
L 1791 3794 
z
" transform="scale(0.015625)"/>
     <path id="DejaVuSans-Bold-4c" d="M 588 4666 
L 1791 4666 
L 1791 909 
L 3903 909 
L 3903 0 
L 588 0 
L 588 4666 
z
" transform="scale(0.015625)"/>
     <path id="DejaVuSans-Bold-49" d="M 588 4666 
L 1791 4666 
L 1791 0 
L 588 0 
L 588 4666 
z
" transform="scale(0.015625)"/>
     <path id="DejaVuSans-Bold-42" d="M 2456 2859 
Q 2741 2859 2887 2984 
Q 3034 3109 3034 3353 
Q 3034 3594 2887 3720 
Q 2741 3847 2456 3847 
L 1791 3847 
L 1791 2859 
L 2456 2859 
z
M 2497 819 
Q 2859 819 3042 972 
Q 3225 1125 3225 1434 
Q 3225 1738 3044 1889 
Q 2863 2041 2497 2041 
L 1791 2041 
L 1791 819 
L 2497 819 
z
M 3616 2497 
Q 4003 2384 4215 2081 
Q 4428 1778 4428 1338 
Q 4428 663 3972 331 
Q 3516 0 2584 0 
L 588 0 
L 588 4666 
L 2394 4666 
Q 3366 4666 3802 4372 
Q 4238 4078 4238 3431 
Q 4238 3091 4078 2852 
Q 3919 2613 3616 2497 
z
" transform="scale(0.015625)"/>
     <path id="DejaVuSans-Bold-52" d="M 2297 2597 
Q 2675 2597 2839 2737 
Q 3003 2878 3003 3200 
Q 3003 3519 2839 3656 
Q 2675 3794 2297 3794 
L 1791 3794 
L 1791 2597 
L 2297 2597 
z
M 1791 1766 
L 1791 0 
L 588 0 
L 588 4666 
L 2425 4666 
Q 3347 4666 3776 4356 
Q 4206 4047 4206 3378 
Q 4206 2916 3982 2619 
Q 3759 2322 3309 2181 
Q 3556 2125 3751 1926 
Q 3947 1728 4147 1325 
L 4800 0 
L 3519 0 
L 2950 1159 
Q 2778 1509 2601 1637 
Q 2425 1766 2131 1766 
L 1791 1766 
z
" transform="scale(0.015625)"/>
     <path id="DejaVuSans-Bold-59" d="M -63 4666 
L 1253 4666 
L 2316 3003 
L 3378 4666 
L 4697 4666 
L 2919 1966 
L 2919 0 
L 1716 0 
L 1716 1966 
L -63 4666 
z
" transform="scale(0.015625)"/>
    </defs>
    <use xlink:href="#DejaVuSans-Bold-53"/>
    <use xlink:href="#DejaVuSans-Bold-45" transform="translate(72.021484 0)"/>
    <use xlink:href="#DejaVuSans-Bold-4e" transform="translate(140.332031 0)"/>
    <use xlink:href="#DejaVuSans-Bold-5a" transform="translate(224.023438 0)"/>
    <use xlink:href="#DejaVuSans-Bold-55" transform="translate(296.533203 0)"/>
    <use xlink:href="#DejaVuSans-Bold-20" transform="translate(377.734375 0)"/>
    <use xlink:href="#DejaVuSans-Bold-43" transform="translate(412.548828 0)"/>
    <use xlink:href="#DejaVuSans-Bold-4f" transform="translate(485.9375 0)"/>
    <use xlink:href="#DejaVuSans-Bold-46" transform="translate(570.947266 0)"/>
    <use xlink:href="#DejaVuSans-Bold-46" transform="translate(639.257812 0)"/>
    <use xlink:href="#DejaVuSans-Bold-45" transform="translate(707.568359 0)"/>
    <use xlink:href="#DejaVuSans-Bold-45" transform="translate(775.878906 0)"/>
    <use xlink:href="#DejaVuSans-Bold-20" transform="translate(844.189453 0)"/>
    <use xlink:href="#DejaVuSans-Bold-53" transform="translate(879.003906 0)"/>
    <use xlink:href="#DejaVuSans-Bold-54" transform="translate(951.025391 0)"/>
    <use xlink:href="#DejaVuSans-Bold-41" transform="translate(1011.488281 0)"/>
    <use xlink:href="#DejaVuSans-Bold-4d" transform="translate(1088.880859 0)"/>
    <use xlink:href="#DejaVuSans-Bold-50" transform="translate(1188.392578 0)"/>
    <use xlink:href="#DejaVuSans-Bold-20" transform="translate(1261.683594 0)"/>
    <use xlink:href="#DejaVuSans-Bold-4c" transform="translate(1296.498047 0)"/>
    <use xlink:href="#DejaVuSans-Bold-49" transform="translate(1360.21875 0)"/>
    <use xlink:href="#DejaVuSans-Bold-42" transform="translate(1397.425781 0)"/>
    <use xlink:href="#DejaVuSans-Bold-52" transform="translate(1473.646484 0)"/>
    <use xlink:href="#DejaVuSans-Bold-41" transform="translate(1550.648438 0)"/>
    <use xlink:href="#DejaVuSans-Bold-52" transform="translate(1628.041016 0)"/>
    <use xlink:href="#DejaVuSans-Bold-59" transform="translate(1699.542969 0)"/>
   </g>
  </g>
  <g id="text_18">
   <!-- 8 designs · print at 100% for 10cm blocks · 50% for 5cm -->
   <g style="fill: #555555" transform="translate(308.23625 47.808) scale(0.08 -0.08)">
    <defs>
     <path id="DejaVuSans-Oblique-38" d="M 2847 1416 
Q 2847 1769 2600 1992 
Q 2353 2216 1953 2216 
Q 1466 2216 1148 1923 
Q 831 1631 831 1184 
Q 831 828 1073 618 
Q 1316 409 1728 409 
Q 2219 409 2533 693 
Q 2847 978 2847 1416 
z
M 3169 3591 
Q 3169 3888 2950 4069 
Q 2731 4250 2369 4250 
Q 1941 4250 1664 4009 
Q 1388 3769 1388 3406 
Q 1388 3094 1605 2903 
Q 1822 2713 2181 2713 
Q 2613 2713 2891 2961 
Q 3169 3209 3169 3591 
z
M 2741 2456 
Q 3094 2322 3281 2050 
Q 3469 1778 3469 1394 
Q 3469 747 2969 328 
Q 2469 -91 1678 -91 
Q 1006 -91 609 239 
Q 213 569 213 1119 
Q 213 1619 553 2008 
Q 894 2397 1441 2503 
Q 1113 2616 941 2852 
Q 769 3088 769 3425 
Q 769 3991 1239 4370 
Q 1709 4750 2431 4750 
Q 3034 4750 3414 4442 
Q 3794 4134 3794 3659 
Q 3794 3247 3511 2923 
Q 3228 2600 2741 2456 
z
" transform="scale(0.015625)"/>
     <path id="DejaVuSans-Oblique-20" transform="scale(0.015625)"/>
     <path id="DejaVuSans-Oblique-64" d="M 2675 525 
Q 2444 222 2128 65 
Q 1813 -91 1428 -91 
Q 903 -91 598 267 
Q 294 625 294 1247 
Q 294 1766 478 2236 
Q 663 2706 1013 3078 
Q 1244 3325 1534 3454 
Q 1825 3584 2144 3584 
Q 2481 3584 2739 3421 
Q 2997 3259 3138 2956 
L 3513 4863 
L 4091 4863 
L 3144 0 
L 2566 0 
L 2675 525 
z
M 891 1350 
Q 891 897 1095 644 
Q 1300 391 1663 391 
Q 1931 391 2161 520 
Q 2391 650 2566 903 
Q 2750 1166 2856 1509 
Q 2963 1853 2963 2188 
Q 2963 2622 2758 2865 
Q 2553 3109 2194 3109 
Q 1922 3109 1687 2981 
Q 1453 2853 1288 2613 
Q 1106 2353 998 2009 
Q 891 1666 891 1350 
z
" transform="scale(0.015625)"/>
     <path id="DejaVuSans-Oblique-65" d="M 3078 2063 
Q 3088 2113 3092 2166 
Q 3097 2219 3097 2272 
Q 3097 2653 2873 2875 
Q 2650 3097 2266 3097 
Q 1838 3097 1509 2826 
Q 1181 2556 1013 2059 
L 3078 2063 
z
M 3578 1613 
L 903 1613 
Q 884 1494 878 1425 
Q 872 1356 872 1306 
Q 872 872 1139 634 
Q 1406 397 1894 397 
Q 2269 397 2603 481 
Q 2938 566 3225 728 
L 3116 159 
Q 2806 34 2476 -28 
Q 2147 -91 1806 -91 
Q 1078 -91 686 257 
Q 294 606 294 1247 
Q 294 1794 489 2264 
Q 684 2734 1063 3103 
Q 1306 3334 1642 3459 
Q 1978 3584 2356 3584 
Q 2950 3584 3301 3228 
Q 3653 2872 3653 2272 
Q 3653 2128 3634 1964 
Q 3616 1800 3578 1613 
z
" transform="scale(0.015625)"/>
     <path id="DejaVuSans-Oblique-73" d="M 3200 3397 
L 3091 2853 
Q 2863 2978 2609 3040 
Q 2356 3103 2088 3103 
Q 1634 3103 1373 2948 
Q 1113 2794 1113 2528 
Q 1113 2219 1719 2053 
Q 1766 2041 1788 2034 
L 1972 1978 
Q 2547 1819 2739 1644 
Q 2931 1469 2931 1166 
Q 2931 609 2489 259 
Q 2047 -91 1331 -91 
Q 1053 -91 747 -37 
Q 441 16 72 128 
L 184 722 
Q 500 559 806 475 
Q 1113 391 1394 391 
Q 1816 391 2080 572 
Q 2344 753 2344 1031 
Q 2344 1331 1650 1516 
L 1591 1531 
L 1394 1581 
Q 956 1697 753 1886 
Q 550 2075 550 2369 
Q 550 2928 970 3256 
Q 1391 3584 2113 3584 
Q 2397 3584 2667 3537 
Q 2938 3491 3200 3397 
z
" transform="scale(0.015625)"/>
     <path id="DejaVuSans-Oblique-69" d="M 1172 4863 
L 1747 4863 
L 1606 4134 
L 1031 4134 
L 1172 4863 
z
M 909 3500 
L 1484 3500 
L 800 0 
L 225 0 
L 909 3500 
z
" transform="scale(0.015625)"/>
     <path id="DejaVuSans-Oblique-67" d="M 3816 3500 
L 3219 434 
Q 3047 -456 2561 -893 
Q 2075 -1331 1253 -1331 
Q 950 -1331 690 -1286 
Q 431 -1241 206 -1147 
L 313 -588 
Q 525 -725 762 -790 
Q 1000 -856 1269 -856 
Q 1816 -856 2167 -557 
Q 2519 -259 2631 300 
L 2681 563 
Q 2441 288 2122 144 
Q 1803 0 1434 0 
Q 903 0 598 351 
Q 294 703 294 1319 
Q 294 1803 478 2267 
Q 663 2731 997 3091 
Q 1219 3328 1514 3456 
Q 1809 3584 2131 3584 
Q 2484 3584 2746 3420 
Q 3009 3256 3138 2956 
L 3238 3500 
L 3816 3500 
z
M 2950 2216 
Q 2950 2641 2750 2872 
Q 2550 3103 2181 3103 
Q 1953 3103 1747 3012 
Q 1541 2922 1394 2759 
Q 1156 2491 1023 2127 
Q 891 1763 891 1375 
Q 891 944 1092 712 
Q 1294 481 1672 481 
Q 2219 481 2584 976 
Q 2950 1472 2950 2216 
z
" transform="scale(0.015625)"/>
     <path id="DejaVuSans-Oblique-6e" d="M 3566 2113 
L 3156 0 
L 2578 0 
L 2988 2091 
Q 3016 2238 3031 2350 
Q 3047 2463 3047 2528 
Q 3047 2791 2881 2937 
Q 2716 3084 2419 3084 
Q 1956 3084 1622 2776 
Q 1288 2469 1184 1941 
L 800 0 
L 225 0 
L 903 3500 
L 1478 3500 
L 1363 2950 
Q 1603 3253 1940 3418 
Q 2278 3584 2650 3584 
Q 3113 3584 3367 3334 
Q 3622 3084 3622 2631 
Q 3622 2519 3608 2391 
Q 3594 2263 3566 2113 
z
" transform="scale(0.015625)"/>
     <path id="DejaVuSans-Oblique-b7" d="M 884 2619 
L 1544 2619 
L 1388 1825 
L 728 1825 
L 884 2619 
z
" transform="scale(0.015625)"/>
     <path id="DejaVuSans-Oblique-70" d="M 3175 2156 
Q 3175 2616 2975 2859 
Q 2775 3103 2400 3103 
Q 2144 3103 1911 2972 
Q 1678 2841 1497 2591 
Q 1319 2344 1212 1994 
Q 1106 1644 1106 1300 
Q 1106 863 1306 627 
Q 1506 391 1875 391 
Q 2147 391 2380 519 
Q 2613 647 2778 891 
Q 2956 1147 3065 1494 
Q 3175 1841 3175 2156 
z
M 1394 2969 
Q 1625 3272 1939 3428 
Q 2253 3584 2638 3584 
Q 3175 3584 3472 3232 
Q 3769 2881 3769 2247 
Q 3769 1728 3584 1258 
Q 3400 788 3053 416 
Q 2822 169 2531 39 
Q 2241 -91 1919 -91 
Q 1547 -91 1294 64 
Q 1041 219 916 525 
L 556 -1331 
L -19 -1331 
L 922 3500 
L 1497 3500 
L 1394 2969 
z
" transform="scale(0.015625)"/>
     <path id="DejaVuSans-Oblique-72" d="M 2853 2969 
Q 2766 3016 2653 3041 
Q 2541 3066 2413 3066 
Q 1953 3066 1609 2717 
Q 1266 2369 1153 1784 
L 800 0 
L 225 0 
L 909 3500 
L 1484 3500 
L 1375 2956 
Q 1603 3259 1920 3421 
Q 2238 3584 2597 3584 
Q 2691 3584 2781 3573 
Q 2872 3563 2963 3538 
L 2853 2969 
z
" transform="scale(0.015625)"/>
     <path id="DejaVuSans-Oblique-74" d="M 2706 3500 
L 2619 3053 
L 1472 3053 
L 1100 1153 
Q 1081 1047 1072 975 
Q 1063 903 1063 863 
Q 1063 663 1183 572 
Q 1303 481 1569 481 
L 2150 481 
L 2053 0 
L 1503 0 
Q 991 0 739 200 
Q 488 400 488 806 
Q 488 878 497 964 
Q 506 1050 525 1153 
L 897 3053 
L 409 3053 
L 500 3500 
L 978 3500 
L 1172 4494 
L 1747 4494 
L 1556 3500 
L 2706 3500 
z
" transform="scale(0.015625)"/>
     <path id="DejaVuSans-Oblique-61" d="M 3438 1997 
L 3047 0 
L 2472 0 
L 2578 531 
Q 2325 219 2001 64 
Q 1678 -91 1281 -91 
Q 834 -91 548 182 
Q 263 456 263 884 
Q 263 1497 752 1853 
Q 1241 2209 2100 2209 
L 2900 2209 
L 2931 2363 
Q 2938 2388 2941 2417 
Q 2944 2447 2944 2509 
Q 2944 2788 2717 2942 
Q 2491 3097 2081 3097 
Q 1800 3097 1504 3025 
Q 1209 2953 897 2809 
L 997 3341 
Q 1322 3463 1633 3523 
Q 1944 3584 2234 3584 
Q 2853 3584 3176 3315 
Q 3500 3047 3500 2534 
Q 3500 2431 3484 2292 
Q 3469 2153 3438 1997 
z
M 2816 1759 
L 2241 1759 
Q 1534 1759 1195 1570 
Q 856 1381 856 984 
Q 856 709 1029 553 
Q 1203 397 1509 397 
Q 1978 397 2328 733 
Q 2678 1069 2791 1631 
L 2816 1759 
z
" transform="scale(0.015625)"/>
     <path id="DejaVuSans-Oblique-31" d="M 416 531 
L 1447 531 
L 2144 4122 
L 978 3897 
L 1088 4441 
L 2247 4666 
L 2881 4666 
L 2075 531 
L 3103 531 
L 3003 0 
L 313 0 
L 416 531 
z
" transform="scale(0.015625)"/>
     <path id="DejaVuSans-Oblique-30" d="M 2444 4750 
Q 3078 4750 3414 4328 
Q 3750 3906 3750 3116 
Q 3750 2516 3592 1923 
Q 3434 1331 3150 863 
Q 2859 394 2467 151 
Q 2075 -91 1600 -91 
Q 988 -91 653 334 
Q 319 759 319 1544 
Q 319 2138 480 2733 
Q 641 3328 928 3794 
Q 1216 4263 1602 4506 
Q 1988 4750 2444 4750 
z
M 2406 4250 
Q 2169 4250 1955 4123 
Q 1741 3997 1569 3750 
Q 1281 3338 1111 2720 
Q 941 2103 941 1453 
Q 941 938 1123 673 
Q 1306 409 1663 409 
Q 1913 409 2125 536 
Q 2338 663 2509 909 
Q 2794 1319 2961 1936 
Q 3128 2553 3128 3206 
Q 3128 3722 2945 3986 
Q 2763 4250 2406 4250 
z
" transform="scale(0.015625)"/>
     <path id="DejaVuSans-Oblique-25" d="M 1503 2209 
Q 1078 2209 829 2486 
Q 581 2763 581 3238 
Q 581 3913 943 4331 
Q 1306 4750 1888 4750 
Q 2313 4750 2561 4470 
Q 2809 4191 2809 3713 
Q 2809 3044 2446 2626 
Q 2084 2209 1503 2209 
z
M 2309 3694 
Q 2309 4022 2187 4187 
Q 2066 4353 1825 4353 
Q 1475 4353 1278 4050 
Q 1081 3747 1081 3206 
Q 1081 2919 1207 2762 
Q 1334 2606 1569 2606 
Q 1903 2606 2106 2903 
Q 2309 3200 2309 3694 
z
M 4997 1394 
Q 4997 1728 4878 1893 
Q 4759 2059 4519 2059 
Q 4172 2059 3973 1754 
Q 3775 1450 3775 909 
Q 3775 619 3901 462 
Q 4028 306 4263 306 
Q 4597 306 4797 603 
Q 4997 900 4997 1394 
z
M 4197 -91 
Q 3772 -91 3525 187 
Q 3278 466 3278 941 
Q 3278 1616 3639 2033 
Q 4000 2450 4581 2450 
Q 5006 2450 5251 2175 
Q 5497 1900 5497 1422 
Q 5497 750 5136 329 
Q 4775 -91 4197 -91 
z
M 5259 4750 
L 1403 -91 
L 903 -91 
L 4763 4750 
L 5259 4750 
z
" transform="scale(0.015625)"/>
     <path id="DejaVuSans-Oblique-66" d="M 3059 4863 
L 2969 4384 
L 2419 4384 
Q 2106 4384 1964 4261 
Q 1822 4138 1753 3809 
L 1691 3500 
L 2638 3500 
L 2553 3053 
L 1606 3053 
L 1013 0 
L 434 0 
L 1031 3053 
L 481 3053 
L 563 3500 
L 1113 3500 
L 1159 3744 
Q 1278 4363 1576 4613 
Q 1875 4863 2516 4863 
L 3059 4863 
z
" transform="scale(0.015625)"/>
     <path id="DejaVuSans-Oblique-6f" d="M 1625 -91 
Q 1009 -91 651 289 
Q 294 669 294 1325 
Q 294 1706 417 2101 
Q 541 2497 738 2766 
Q 1047 3184 1428 3384 
Q 1809 3584 2291 3584 
Q 2888 3584 3255 3212 
Q 3622 2841 3622 2241 
Q 3622 1825 3500 1412 
Q 3378 1000 3181 728 
Q 2875 309 2494 109 
Q 2113 -91 1625 -91 
z
M 891 1344 
Q 891 869 1089 633 
Q 1288 397 1691 397 
Q 2269 397 2648 901 
Q 3028 1406 3028 2181 
Q 3028 2634 2825 2865 
Q 2622 3097 2228 3097 
Q 1903 3097 1650 2945 
Q 1397 2794 1197 2484 
Q 1050 2253 970 1956 
Q 891 1659 891 1344 
z
" transform="scale(0.015625)"/>
     <path id="DejaVuSans-Oblique-63" d="M 3431 3366 
L 3316 2797 
Q 3109 2947 2876 3022 
Q 2644 3097 2394 3097 
Q 2119 3097 1870 3000 
Q 1622 2903 1453 2725 
Q 1184 2453 1037 2087 
Q 891 1722 891 1331 
Q 891 859 1127 628 
Q 1363 397 1844 397 
Q 2081 397 2348 469 
Q 2616 541 2906 684 
L 2797 116 
Q 2547 13 2283 -39 
Q 2019 -91 1741 -91 
Q 1044 -91 669 257 
Q 294 606 294 1253 
Q 294 1797 489 2255 
Q 684 2713 1069 3078 
Q 1331 3328 1684 3456 
Q 2038 3584 2456 3584 
Q 2700 3584 2940 3529 
Q 3181 3475 3431 3366 
z
" transform="scale(0.015625)"/>
     <path id="DejaVuSans-Oblique-6d" d="M 5747 2113 
L 5338 0 
L 4763 0 
L 5166 2094 
Q 5191 2228 5203 2325 
Q 5216 2422 5216 2491 
Q 5216 2772 5059 2928 
Q 4903 3084 4622 3084 
Q 4203 3084 3875 2770 
Q 3547 2456 3450 1953 
L 3066 0 
L 2491 0 
L 2900 2094 
Q 2925 2209 2937 2307 
Q 2950 2406 2950 2484 
Q 2950 2769 2794 2926 
Q 2638 3084 2363 3084 
Q 1938 3084 1609 2770 
Q 1281 2456 1184 1953 
L 800 0 
L 225 0 
L 909 3500 
L 1484 3500 
L 1375 2956 
Q 1609 3263 1923 3423 
Q 2238 3584 2597 3584 
Q 2978 3584 3223 3384 
Q 3469 3184 3519 2828 
Q 3781 3197 4126 3390 
Q 4472 3584 4856 3584 
Q 5306 3584 5551 3325 
Q 5797 3066 5797 2591 
Q 5797 2488 5784 2364 
Q 5772 2241 5747 2113 
z
" transform="scale(0.015625)"/>
     <path id="DejaVuSans-Oblique-62" d="M 3169 2138 
Q 3169 2591 2961 2847 
Q 2753 3103 2388 3103 
Q 2122 3103 1889 2973 
Q 1656 2844 1484 2597 
Q 1303 2338 1198 1995 
Q 1094 1653 1094 1313 
Q 1094 881 1298 636 
Q 1503 391 1863 391 
Q 2134 391 2365 517 
Q 2597 644 2772 891 
Q 2950 1147 3059 1487 
Q 3169 1828 3169 2138 
z
M 1381 2969 
Q 1594 3256 1914 3420 
Q 2234 3584 2584 3584 
Q 3122 3584 3439 3221 
Q 3756 2859 3756 2241 
Q 3756 1734 3570 1259 
Q 3384 784 3041 416 
Q 2816 172 2522 40 
Q 2228 -91 1906 -91 
Q 1566 -91 1316 65 
Q 1066 222 909 531 
L 806 0 
L 231 0 
L 1178 4863 
L 1753 4863 
L 1381 2969 
z
" transform="scale(0.015625)"/>
     <path id="DejaVuSans-Oblique-6c" d="M 1172 4863 
L 1747 4863 
L 800 0 
L 225 0 
L 1172 4863 
z
" transform="scale(0.015625)"/>
     <path id="DejaVuSans-Oblique-6b" d="M 1172 4863 
L 1747 4863 
L 1197 2028 
L 3169 3500 
L 3916 3500 
L 1716 1825 
L 3322 0 
L 2625 0 
L 1131 1709 
L 800 0 
L 225 0 
L 1172 4863 
z
" transform="scale(0.015625)"/>
     <path id="DejaVuSans-Oblique-35" d="M 3719 4666 
L 3622 4141 
L 1691 4141 
L 1466 2988 
Q 1609 3034 1757 3056 
Q 1906 3078 2059 3078 
Q 2706 3078 3081 2731 
Q 3456 2384 3456 1791 
Q 3456 1375 3264 994 
Q 3072 613 2719 325 
Q 2469 125 2108 17 
Q 1747 -91 1319 -91 
Q 1038 -91 744 -41 
Q 450 9 128 109 
L 244 697 
Q 531 556 820 486 
Q 1109 416 1403 416 
Q 2013 416 2411 781 
Q 2809 1147 2809 1697 
Q 2809 2103 2548 2328 
Q 2288 2553 1819 2553 
Q 1572 2553 1305 2495 
Q 1038 2438 756 2322 
L 1209 4666 
L 3719 4666 
z
" transform="scale(0.015625)"/>
    </defs>
    <use xlink:href="#DejaVuSans-Oblique-38"/>
    <use xlink:href="#DejaVuSans-Oblique-20" transform="translate(63.623047 0)"/>
    <use xlink:href="#DejaVuSans-Oblique-64" transform="translate(95.410156 0)"/>
    <use xlink:href="#DejaVuSans-Oblique-65" transform="translate(158.886719 0)"/>
    <use xlink:href="#DejaVuSans-Oblique-73" transform="translate(220.410156 0)"/>
    <use xlink:href="#DejaVuSans-Oblique-69" transform="translate(272.509766 0)"/>
    <use xlink:href="#DejaVuSans-Oblique-67" transform="translate(300.292969 0)"/>
    <use xlink:href="#DejaVuSans-Oblique-6e" transform="translate(363.769531 0)"/>
    <use xlink:href="#DejaVuSans-Oblique-73" transform="translate(427.148438 0)"/>
    <use xlink:href="#DejaVuSans-Oblique-20" transform="translate(479.248047 0)"/>
    <use xlink:href="#DejaVuSans-Oblique-b7" transform="translate(511.035156 0)"/>
    <use xlink:href="#DejaVuSans-Oblique-20" transform="translate(542.822266 0)"/>
    <use xlink:href="#DejaVuSans-Oblique-70" transform="translate(574.609375 0)"/>
    <use xlink:href="#DejaVuSans-Oblique-72" transform="translate(638.085938 0)"/>
    <use xlink:href="#DejaVuSans-Oblique-69" transform="translate(679.199219 0)"/>
    <use xlink:href="#DejaVuSans-Oblique-6e" transform="translate(706.982422 0)"/>
    <use xlink:href="#DejaVuSans-Oblique-74" transform="translate(770.361328 0)"/>
    <use xlink:href="#DejaVuSans-Oblique-20" transform="translate(809.570312 0)"/>
    <use xlink:href="#DejaVuSans-Oblique-61" transform="translate(841.357422 0)"/>
    <use xlink:href="#DejaVuSans-Oblique-74" transform="translate(902.636719 0)"/>
    <use xlink:href="#DejaVuSans-Oblique-20" transform="translate(941.845703 0)"/>
    <use xlink:href="#DejaVuSans-Oblique-31" transform="translate(973.632812 0)"/>
    <use xlink:href="#DejaVuSans-Oblique-30" transform="translate(1037.255859 0)"/>
    <use xlink:href="#DejaVuSans-Oblique-30" transform="translate(1100.878906 0)"/>
    <use xlink:href="#DejaVuSans-Oblique-25" transform="translate(1164.501953 0)"/>
    <use xlink:href="#DejaVuSans-Oblique-20" transform="translate(1259.521484 0)"/>
    <use xlink:href="#DejaVuSans-Oblique-66" transform="translate(1291.308594 0)"/>
    <use xlink:href="#DejaVuSans-Oblique-6f" transform="translate(1326.513672 0)"/>
    <use xlink:href="#DejaVuSans-Oblique-72" transform="translate(1387.695312 0)"/>
    <use xlink:href="#DejaVuSans-Oblique-20" transform="translate(1428.808594 0)"/>
    <use xlink:href="#DejaVuSans-Oblique-31" transform="translate(1460.595703 0)"/>
    <use xlink:href="#DejaVuSans-Oblique-30" transform="translate(1524.21875 0)"/>
    <use xlink:href="#DejaVuSans-Oblique-63" transform="translate(1587.841797 0)"/>
    <use xlink:href="#DejaVuSans-Oblique-6d" transform="translate(1642.822266 0)"/>
    <use xlink:href="#DejaVuSans-Oblique-20" transform="translate(1740.234375 0)"/>
    <use xlink:href="#DejaVuSans-Oblique-62" transform="translate(1772.021484 0)"/>
    <use xlink:href="#DejaVuSans-Oblique-6c" transform="translate(1835.498047 0)"/>
    <use xlink:href="#DejaVuSans-Oblique-6f" transform="translate(1863.28125 0)"/>
    <use xlink:href="#DejaVuSans-Oblique-63" transform="translate(1924.462891 0)"/>
    <use xlink:href="#DejaVuSans-Oblique-6b" transform="translate(1979.443359 0)"/>
    <use xlink:href="#DejaVuSans-Oblique-73" transform="translate(2037.353516 0)"/>
    <use xlink:href="#DejaVuSans-Oblique-20" transform="translate(2089.453125 0)"/>
    <use xlink:href="#DejaVuSans-Oblique-b7" transform="translate(2121.240234 0)"/>
    <use xlink:href="#DejaVuSans-Oblique-20" transform="translate(2153.027344 0)"/>
    <use xlink:href="#DejaVuSans-Oblique-35" transform="translate(2184.814453 0)"/>
    <use xlink:href="#DejaVuSans-Oblique-30" transform="translate(2248.4375 0)"/>
    <use xlink:href="#DejaVuSans-Oblique-25" transform="translate(2312.060547 0)"/>
    <use xlink:href="#DejaVuSans-Oblique-20" transform="translate(2407.080078 0)"/>
    <use xlink:href="#DejaVuSans-Oblique-66" transform="translate(2438.867188 0)"/>
    <use xlink:href="#DejaVuSans-Oblique-6f" transform="translate(2474.072266 0)"/>
    <use xlink:href="#DejaVuSans-Oblique-72" transform="translate(2535.253906 0)"/>
    <use xlink:href="#DejaVuSans-Oblique-20" transform="translate(2576.367188 0)"/>
    <use xlink:href="#DejaVuSans-Oblique-35" transform="translate(2608.154297 0)"/>
    <use xlink:href="#DejaVuSans-Oblique-63" transform="translate(2671.777344 0)"/>
    <use xlink:href="#DejaVuSans-Oblique-6d" transform="translate(2726.757812 0)"/>
   </g>
  </g>
 </g>
 <defs>
  <clipPath id="pc33f237b25">
   <rect x="27.648" y="125.318407" width="188.676" height="188.676"/>
  </clipPath>
  <clipPath id="p62e60c5e10">
   <rect x="227.124" y="125.318407" width="188.676" height="188.676"/>
  </clipPath>
  <clipPath id="p531df1a118">
   <rect x="426.6" y="125.318407" width="188.676" height="188.676"/>
  </clipPath>
  <clipPath id="p4960b36dba">
   <rect x="626.076" y="125.318407" width="188.676" height="188.676"/>
  </clipPath>
  <clipPath id="p930f7a471b">
   <rect x="27.648" y="345.921593" width="188.676" height="188.676"/>
  </clipPath>
  <clipPath id="pa451d093d3">
   <rect x="227.124" y="345.921593" width="188.676" height="188.676"/>
  </clipPath>
  <clipPath id="p0298f449ae">
   <rect x="426.6" y="345.921593" width="188.676" height="188.676"/>
  </clipPath>
  <clipPath id="p733e8713e5">
   <rect x="626.076" y="345.921593" width="188.676" height="188.676"/>
  </clipPath>
 </defs>
</svg>
